<?xml version="1.0" encoding="utf-8"?>
<!-- Generator: Adobe Illustrator 28.5.0, SVG Export Plug-In . SVG Version: 9.03 Build 54727)  -->
<svg version="1.1" id="Layer_1" xmlns="http://www.w3.org/2000/svg" xmlns:xlink="http://www.w3.org/1999/xlink" x="0px" y="0px"
	 viewBox="0 0 653.5 719.5" style="enable-background:new 0 0 653.5 719.5;" xml:space="preserve">
<style type="text/css">
	.st0{fill:none;stroke:#FFFFFF;stroke-width:2;stroke-linecap:round;stroke-linejoin:round;stroke-miterlimit:10;}
</style>
<g id="_x30_SRVux_00000170958851423285602970000000603469995427730622_">
	<g>
		<path class="st0" d="M500.6,169.4c-3.5,3.2-6.7,3.3-11.1,0.7c-4-2.4-9.1-3.5-13.8-4.1c-10.4-1.2-20.8-2-31.3,0.3
			c-17.7,3.8-32.3,12.5-44.1,26c-5.7,6.5-7.3,14.7-6.5,23.3c0.2,2.2,1.3,4.1,3.4,5.5c4.1,2.7,4.3,6.5,0,8.8
			c-9.7,5.1-16.6,13.2-23.3,21.5c-0.7,0.8-0.8,2.4-2.5,2"/>
		<path class="st0" d="M230.9,58.6c-3.7-2-2.6-5.9-3.4-9c-4.2-15.4-10.4-29.5-23.9-39.2c-4.6-3.4-9.4-3.5-13.8-0.4
			c-3.6,2.6-6.6,2.1-10,0.4c-5.6-2.8-8.8-2.2-11.8,3c-1.3,2.2-2.7,4.3-4.1,6.4c-3.9,5.8-8.2,7.1-14.4,3.9c-3.8-1.9-7.1-4.6-11-6.3
			c-9.8-4.3-16-0.3-18.8,5.9c-1,2.2-1.1,4.6-1,6.9c0.1,4-1.3,8-4.6,9.8c-13,7.1-12.8,19.6-7.9,32.9c3.6,9.9,10.8,17.2,17,25.3
			c7.3,9.7,15.6,18.5,24.8,26.3c4.3,3.7,8.8,7.7,15.3,5.5"/>
		<path class="st0" d="M509.5,207.1c1.2-2.5,2.5-4.9,3.4-7.5c1-2.5,1.2-5-1.4-7c-4.7-3.6-6.1-3.5-9.4,1.5
			c-3.6,5.4-6.5,11.2-10.3,16.5c-5.8,8-12.9,14.1-21.4,18.8c-7.8,4.3-15.5,8.9-24.4,10.8c-8.7,1.9-17.3,1.7-25.8-1
			c-7.7-2.4-15.2-5.3-21.9-9.9"/>
		<path class="st0" d="M420.6,94.9c-3.6,4.3-1.5,7.7,0.8,12c6.4,12.2,6.1,25.3,1.6,38.1c-2.9,8.4-7.3,16.2-13.3,22.9
			c-6.6,7.3-15,10.4-24.8,11.1c-6.3,0.4-12.3-0.9-18.4-1.6"/>
		<path class="st0" d="M221.5,253.8c7.9-1.6,15.8-2.2,23.9-0.1c4.6,1.2,8.5,3.4,12.4,6c4,2.6,7.9,5.1,13.4,4.3
			c3.7-0.6,5.1-2.2,5.9-5.2c0.7-2.8,1.4-5.6,2-8.4c1.5-7.4,6.1-10.6,13.4-8.9c4.2,1,8.3,2.5,12.4,3.9c8.9,3.2,17.2,1.1,24.8-3.6
			c7.2-4.4,13.7-4.5,20.4,0.6c3.3,2.5,7.1,3.6,11.4,3.6c3.4,0,6.4,1.6,7.9,4.9c3.1,6.4,8.9,10.8,12.5,16.8c0.5,0.8,1.4,1.2,1.5,2.5
			c0.5,7.5,3.6,14.4,4.6,21.8c0.9,6.6,1.2,13,0.2,19.4c-3.5,22-13.5,41.3-25.7,59.6"/>
		<path class="st0" d="M83.4,226c1.1,6.8,6.3,10.6,13.4,8.3c10.8-3.5,20.8-1.4,30.8,2.1c6.4,2.3,13,4.4,19.5,6.1
			c6.9,1.7,14.4,1.4,21.8,0.5c3.4-0.4,6.8-1,10.4-0.9c4.6,0.2,8.4-3.5,12.4-5.8c1.8-1,3.1-2.8,5.5-2.4"/>
		<path class="st0" d="M446.9,22.4c0.4,2-0.5,3.3-2,4.5c-2.8,2.1-3.8,5.1-4.5,8.4c-1.2,6.1-2.6,12.3-9.9,14.5
			c-1.9,0.6-3.3,2.5-5,3.9c-2.5,2-4.9,4.2-8.4,3.4c-2-0.4-2.8,1.3-3.9,2.1c-2.6,1.9-4.5,4.5-7.5,6c-1.8,0.9-3.3,2.7-2.1,5.4
			c0.4,1.1,0.1,2.8-0.5,3.9c-1.4,2.8-0.9,5.3,0.3,8c1.9,4.3,0.5,6.7-4.2,7.4c-2,0.3-4,0.4-6,0.5c-7.8,0.3-14.5,3.1-20.4,8.4
			c-10.1,9.1-18.7,19.2-22.7,32.4c-3.6,11.8-4.2,23.5,2.3,34.8c0.4,0.7,0.8,2.1,1.2,2.3c5.1,3,2.9,6.4,1.6,10.6
			c-3.1,10.5-4.4,21.3-5.2,32.2c-0.7,9.7-0.5,19.3,1.5,28.8c0.1,0.7-0.6,1.6-0.9,2.5"/>
		<path class="st0" d="M180.3,242.8c-6.1,8.9-15.1,12.9-25.3,14.9c-9.6,1.9-19.7,2.3-27.8,8.9c-4,3.3-8.1,6.5-12.4,9.4
			c-6.5,4.3-12.9,8.8-21.3,8.6c-4.3-0.1-7.8-1.3-10.9-4.1c-5-4.5-10.6-6.4-17.4-5.6c-3.7,0.4-7.8,0.4-11.4-0.5
			c-6.6-1.8-10.4-6.6-12.5-13.2c-3.5-11.1-3.4-11.2-16.3-9.3c-7.9,1.2-15.1-3.7-14.8-12.1c0.2-6.3,3.2-11.8,7.7-16.4
			c10.2-10.4,23-15.7,36.8-19.4c5.6-1.5,11.6-1.7,16.9-4.4"/>
		<path class="st0" d="M107.8,79.5c-4.3-2-9-3.5-12.8-6.1c-7.7-5.2-15-5.9-22.4,0.1c-3.7,3-7.3,2.8-11.5,1
			c-14.4-6-21.9,6.6-21.7,16.8c0,1.8,0.3,3.4-1.2,4.4c-4.5,3.2-4.3,7.9-3.9,12.4c0.6,6.7-1.4,9.1-8,7.9c-14-2.6-20.7,8.9-20.9,18.4
			c-0.1,3.6,2.1,5.9,4.5,7.9c4.5,3.7,6,7.7,3.6,13.5c-2.6,6.3,0.6,11.8,4.9,16.3c7,7.4,16.2,11.7,25.3,15.9
			c7.9,3.7,16.3,5.8,24.3,9.1c8.6,3.5,17.5,2.8,26.4,3.3c4.1,0.2,8,0.4,12-1.8c6.2-3.3,13.5-2.6,20.3-4.1c0.8-0.2,1.8-0.1,2.5-0.5
			c6.6-4.7,12.2-0.8,17.9,2"/>
		<path class="st0" d="M366.5,429.1c-1.3,1.2-3,2.6-1.9,4.4c1.3,2.2,4.1,2.8,6.4,3.4c1.2,0.3,3.6-0.7,4.3-1.9
			c4.1-6.2,10.8-5.7,16.5-5.7c15.4,0.2,30.5-2.4,45.7-3.3c8.2-0.5,15.2,2.8,21.8,6.7c7.1,4.1,13.9,8.7,20.5,13.7
			c8.4,6.4,13.8,18.4,7.2,30.2c-3.4,6.1-4.4,12-4.2,18.5c0.2,5.6-3.2,9.8-6.7,12.7c-6.7,5.4-10.1,11.7-10.3,20.1
			c-0.1,2.3-0.5,4.8-1.5,6.9c-3.8,7.9-6.4,9-14.3,4.4c-2.3-1.3-3.6-4.7-7-2.9c-3.6,2-5.7,5.4-5.9,9.4c-0.2,3.5,0,7.8-1,10.2
			c-2.2,5.2-5.7,10.5-11.5,13.1c-3.1,1.4-6.1,2.8-9.4,3.5c-6.9,1.6-12.5,5.4-16.9,10.9c-1.8,2.3-4.1,4-6.5,5.4
			c-4.4,2.6-9.1,3.6-13.9,1.5c-6.9-3-14.1-3.6-21.4-3.9c-7.7-0.3-14-3.8-19.2-8.7c-3.1-3-6.2-3.9-10.1-3.8
			c-8.1,0.1-16.2,0.4-24.3,0.5c-1,0-2.1,0.6-3-0.5"/>
		<path class="st0" d="M463.3,310.4c-0.7-5.2-3.2-9-7.9-11.5c-5.7-3-8.4-7.9-9.1-14.4c-0.6-5.4-2.8-10.6-6.9-14.4
			c-7-6.5-14.6-12.4-24.3-14.4c-11.9-2.4-21.8,1.3-29.8,10.4c-0.5,0.6-1,1.3-1.5,2"/>
		<path class="st0" d="M163.4,23.8c1.4,3.5,2.1,7.2,2,10.9c-0.4,16.9,2.2,33.3,7.9,49.2c1.8,5.1,3.5,10.3,3.6,15.9"/>
		<path class="st0" d="M194.7,524.9c-5.5,1.6-11.2,1.9-16.9,2.4c-3.9,0.3-6.9,2-9.9,4.1c-7.1,5-14.1,10.1-21.4,14.8
			c-5.5,3.6-11.6,5.5-18.3,6.2c-5.4,0.5-11.1,0.6-15.9,3.8"/>
		<path class="st0" d="M320.3,479.7c-0.1,6.9,3.6,12.3,7.5,17.3c5.8,7.4,12.2,14.2,18.3,21.4c6,7.1,10.2,15.4,13.8,23.9
			c3.2,7.6-2,14.7-10.3,14.2c-5.2-0.3-9.5,0.6-13.4,4.1c-3,2.7-6.3,4-10.4,2.1c-2.7-1.2-5.5-0.2-7.9,1.4c-6,4.1-13,6.5-19.9,7.6
			c-5.5,0.9-11.1-2.3-15.8-5.6c-6.6-4.6-9-12.4-13.9-18.4"/>
		<path class="st0" d="M185.7,618.3c-3.5,0.8-7,1.6-10.4,2.5c-5.4,1.3-10.8,2.1-16.4,1.5c-8.5-0.9-16.2,1.9-23.9,5.3
			c-6.8,3.1-14.3,4.7-21.8,5.6"/>
		<path class="st0" d="M293,97.8c4.8-6.8,11.2-12,17.9-16.9c1.9-1.4,3.2-3,4.5-4.9c2.3-3.4,1.9-6.5-0.7-8.9
			c-3.5-3.3-4.6-6.6-4.1-11.5c0.9-7.4-4.2-9.5-9.8-7.9c-2.3,0.6-4.6,1.5-7,2c-5.9,1.2-9.9-1.7-10.4-7.9c-0.4-6.1-2.3-11.4-7.1-15.3
			c-2.1-1.7-4.8-2.5-7.4-1c-2.5,1.5-6,2.7-5,6.9"/>
		<path class="st0" d="M315.8,247.8c0,4,2.1,7.5,2.8,11.4c0.9,5.2,0.1,10-0.7,15c-0.7,4.2-1,8.6-1,12.9c-0.1,10.4,0,20.9,0,31.3"/>
		<path class="st0" d="M304.9,153.5c-6.1-0.4-11.9,1.7-17.9,2.5c-0.5,0.1-1.3,0.2-1.5,0.5c-2.6,4.7-7.7,5.8-12,7.8
			c-5.4,2.5-8.3,7-11.3,11.5c-4.9,7.4-11.1,12.3-20.4,12.4"/>
		<path class="st0" d="M264.2,28.3c-0.3-0.2-0.7-0.3-1-0.5c-9.3-6.3-12.7-5.3-18.9,4.9c-3.9,6.5-6.1,13.8-9.9,20.4
			c-6.1,10.7-7.4,22.9-10,34.7c-2.7,12-3.6,24.4-7.3,36.3c-0.3,0.9,0,2,0,3"/>
		<path class="st0" d="M366,178.3c-3.9,7.8-5.7,16.2-7,24.8c-2.2,14.3-0.1,28.3,1.1,42.5"/>
		<path class="st0" d="M32.3,118.2c5.2,3,10.5,5.9,14.3,10.5c6.1,7.3,14.4,10.5,22.9,13.3c7.1,2.3,13.4,6,19.4,10.4
			c2.5,1.8,5.1,3.6,8.4,4.1"/>
		<path class="st0" d="M281.6,47.2c-6,10.6-10.1,21.7-12.1,33.7c-1.1,7-4.5,13.5-7.8,19.9c-1.8,3.6-3.6,7.3-5.5,10.9"/>
		<path class="st0" d="M252.8,551.2c1.5,3,2.7,6.1,4.5,8.9c3.7,5.6,3.7,11.2,0.4,16.9c-2.9,5-5.2,10.2-9.4,14.5
			c-7.7,7.9-11.9,17.7-14.4,28.3c-1.4,5.9-4.5,11-8,15.9"/>
		<path class="st0" d="M173.8,326.8c2.1,1.4,4.5,1.5,7,1.5c8.4-0.1,15.3,2.6,20.4,9.9c8,11.3,19.1,19.6,29.1,29
			c7.5,7.1,16.7,12.7,21,22.7c0.5,1.2,1,2.3,1.3,3c1.7,0,3.2,0,4.7,0"/>
		<path class="st0" d="M268.7,584.5c4.7,6.5,1.9,12.6-1.6,18.3c-3.8,6.3-7.9,12.6-12.4,18.4c-8.5,10.9-12.7,23.4-14.8,36.8"/>
		<path class="st0" d="M180.3,641.1c1.1,8.1,0.1,16.2,0.1,24.3c-0.1,11.5-3.7,21.9-9.1,31.7c-0.8,1.5-1.7,3.5-1.2,4.4
			c1.3,2.8-0.7,4.7-1.2,7"/>
		<path class="st0" d="M218.5,578.6c-4.8,1.7-6.6,6.1-8.3,10c-2.5,5.7-5.4,11.2-8.8,16.2c-5.4,7.8-3.7,15.6-2.2,23.5
			c1.5,7.4,4.4,14.5,5.7,21.9c0.9,5.2-0.7,10.6-1.7,15.9c-0.8,4.3-3.7,8.2-2.1,12.9"/>
		<path class="st0" d="M274.1,463.8c-8.6,4.3-17.8,6.7-27.3,8c-3.9,0.5-7-0.6-9.5-3.9c-5.6-7.4-13.2-12-22.3-13.9
			c-8.8-1.9-16.9-1.2-24.9,3.8c-5.3,3.3-9.8,6.3-11,13.1c-0.8,4.7-0.6,8.9,2.2,12.4c3.6,4.6,4.5,8.9,1.4,14c-0.3,0.6-0.2,1.4-0.5,2
			c-4.4,8.4-3.9,12.6,4.7,19c5.7,4.3,10,9.7,15.1,14.2"/>
		<path class="st0" d="M311.9,97.3c2.2,3.2,0.1,5.8-1.6,7.8c-2.6,3-4.3,5.7-3.6,10.1c0.6,3.4-2.6,6-4.8,8.4
			c-6.7,7-14.6,12.4-22.8,17.4c-7,4.3-13.5,9.3-19.8,14.5c-1.8,1.5-3.8,3.1-3.5,5.9"/>
		<path class="st0" d="M167.8,623.7c4.7,1.5,9.6,0.8,14.9,1c-4.2,7.2-7.7,14.6-14.4,19.8c-2.2,1.7-4.6,2.6-7.4,2.5
			c-5-0.2-9.9,0-14.9-0.4c-9-0.8-17.2,2.8-24.7,7c-3.5,2-7.2,3.9-10.5,6.3c-1.6,1.2-4.5,1.4-4.9,3.5c-0.8,4.4-3.8,8.6-2.1,13.4"/>
		<path class="st0" d="M480.7,37.3c-5.2,1.1-10.3,0.3-15.4-0.3c-6.5-0.8-9.7,0.8-12.4,6.7c-2.1,4.7-3.5,9.5-2.6,14.9
			c0.9,6.3,0,12.1-5.2,17c-2.5,2.4-3,6.6-5,9.8c-4.1,6.3-10.7,7.6-17,9.3c-3.4,0.9-2.7-3.4-4.4-4.8"/>
		<path class="st0" d="M136.3,521.9c0.7,1,0.1,1.7-0.8,2c-8.6,3.1-16.1,8.2-24.3,12c-5.7,2.6-11.6,3.6-17.9,3.5
			c-4.3-0.1-8.7-0.4-12.9,1"/>
		<path class="st0" d="M509,369.5c-1-1.5-2.3-1.8-4-1c-2.1,1-4.3,1.7-7,2.8c1.7,12.8-4.6,22.9-14,30.8
			c-10.8,9.1-22.4,17.2-36.6,20.5c-0.9,0.2-1.7,1-2.5,1.5"/>
		<path class="st0" d="M281.1,624.7c-2.6,4.8-5.8,9.4-8.9,13.9c-4.9,7.2-8.9,14.6-9.1,23.8c-0.1,5.4-1.2,10.9-3.8,15.9"/>
		<path class="st0" d="M236.4,134.6c0.3,0.2,0.8,0.2,1,0.5c1.1,2,4.8,1.5,4.6,5c-0.2,3.7-2.7,5.9-5.2,7.2c-2.8,1.5-5.9,3.1-9.3,3.2
			c-4,0.1-7.3,1.5-9.4,5c-2.3,3.8-5.7,5.2-10,5c-5.8-0.3-10.7,2.5-15.4,5.4"/>
		<path class="st0" d="M187.7,595.4c-6.8,0.9-13.5,1.7-20.4,1.5c-6-0.2-11.7,0.8-17.4,2.9c-4.4,1.6-9.1,2.4-13.9,1.1"/>
		<path class="st0" d="M131.1,174.8c-5.7-0.2-11.2-1.6-16.9-1.6c-10.6,0-21.2-1.5-31.8-0.9"/>
		<path class="st0" d="M481.7,510.5c6.3-1.6,11.5,2.1,16.8,4.1c6.8,2.5,10.8,8.2,14.5,14.2c6.6,10.6,12.3,21.9,20.7,31.4
			c0.7,0.8,0.7,2.3,1,3.4"/>
		<path class="st0" d="M595.4,482.7c-10.2,6.9-18.8,15.6-27.3,24.4c-4.5,4.6-10.2,7.4-15.4,11c-1.4,1-4.8,1.1-3.3,4.4"/>
		<path class="st0" d="M288,223c-1.8,0.3-3.4-0.3-5-1c-7.8-3.4-16-2.7-23.8-0.8c-11.7,2.9-21.9,0.4-31.8-5.6"/>
		<path class="st0" d="M107.3,351.1c0.2,2.8,2.9,2.4,4.5,3.4c6.5,4.2,11.2,10.2,15.6,16.1c6.3,8.4,13.6,9.3,22.6,6.8"/>
		<path class="st0" d="M248.8,550.3c-2.1,7.3-6.8,13.1-11.5,18.8c-6.1,7.3-10.2,15.4-12.8,24.4c-0.3,1.1-0.4,2.3-1.5,3"/>
		<path class="st0" d="M510,182.3c3.4,2,7.2,1.6,10.9,1.4c6.4-0.2,12.3,0.7,16.4,6.5c0.6,0.9,2,2,2.9,1.9c6.3-0.7,10.4,3.7,15.4,6.1
			c1.5,0.7,3,1.9,4.5,1.9c2.2-0.1,3.1,0.7,3.5,2.6c1.5,6.7,6.5,10.1,12.5,11.8c3,0.9,4.4,3.4,6.9,4.6"/>
		<path class="st0" d="M481.2,444c3-2,5.9-4.1,9-5.9c4.3-2.6,9-0.6,13.4-0.4c10.9,0.6,21.8,1.8,32.8,0.8c2.4-0.2,4.6-1.3,7-1.9"/>
		<path class="st0" d="M262.2,556.2c-0.7,4.1,2.9,6.5,4.1,9.9c0.8,2.5,2.3,4.9,3.9,6.9c3.8,4.7,9.5,7,13.8,11c4,3.7,8.9,5.5,14,6.9
			c11.6,3,19.7,10.4,26.4,19.9c1.3,1.9,2.5,4.1,4.9,5"/>
		<path class="st0" d="M207.6,228c-1.2,8.3-3.4,16-11.9,19.9c-2.6,1.2-3.9,3.5-4.9,6c-2.4,5.6-5.6,10.6-10.5,14.4"/>
		<path class="st0" d="M548.2,158.4c-3.4-1.2-6.2-0.3-8.4,2.5c-1.3,1.7-2.4,3.8-4.5,4.4c-5,1.5-8.7,4.2-11,9
			c-1.3,2.6-4.4,3.3-6.9,3.9c-7.5,2-7.6,1.8-8.4,8.1"/>
		<path class="st0" d="M145.5,243.3c-11.9,4.1-24,6.6-36.8,4.5c-2.1-0.3-4.3,0-6.4,0"/>
		<path class="st0" d="M305.9,395.8c0.7-11.4-1.3-22.4-4.4-33.3c-1-3.6-2.7-6-7-5"/>
		<path class="st0" d="M226.4,542.3c-1.6,8.4-5.8,15.6-10.1,22.7c-1.9,3.2-6.4,2.6-9.8,2.5c-6.5-0.3-12.9-1.8-19.4-1.4
			c-5.6,0.4-11.1,1.2-15.4,5.4"/>
		<path class="st0" d="M422.1,341.2c10-5.8,18.5-13.6,27.3-20.9c2.3-1.9,4.6-3.7,7-5.5c6.5-4.8,10.1-4.7,16.4,0.5
			c6.1,5,7.6,12.2,8.3,19.4c0.8,7.5,2.7,14.5,7.6,20.3c3.9,4.6,6.7,9.7,9.4,15"/>
		<path class="st0" d="M165.4,647.1c-0.2,1.5,0.6,2.8-0.8,4.6c-3.4,4.4-7,8.6-10.6,12.7c-3.4,3.8-8.3,3.6-12.9,4
			c-10.6,1-21,2.5-30.8,6.9c-2.7,1.2-3.8,2.6-3.5,5.5c0.4,3.8,0.4,7.6,0.5,11.4"/>
		<path class="st0" d="M498.1,559.2c-7.5-1.9-15.1-2.3-22.9-1.6c-6.5,0.6-12.5-2.1-18.9-2.9c-0.2,0-0.4,0.1-0.5,0
			c-2.8-4.7-6.9-8.8-6.5-14.9"/>
		<path class="st0" d="M260.2,506.1c0.2,1-1.3,1.3-0.6,3c4.3,11,5.7,22.7,8.1,34.2c0.5,2.4,0.8,3.4-2.4,4.3c-2.3,0.6-4.9,0.5-7,1.7"
			/>
		<path class="st0" d="M221.5,404.7c7.1,7.5,16.3,11.6,25.4,15.8c1.3,0.6,2.3,0.9,3.1,2.5c2,3.9,7.7,4.8,11,2c1.2-1,1.3-3.3,0.7-3.8
			c-2-1.4-1.8-4.8-4.9-5.1"/>
		<path class="st0" d="M287.5,638.2c2.4,4.7,2.1,9.9,2.3,14.9c0.1,2.4-1.4,5.2-2.9,7.4c-4.8,7.7-4.8,16.1-3.2,24.3
			c0.7,3.8-1.4,6.9-0.7,10.5"/>
		<path class="st0" d="M479.7,96.8c3,6.2,5.4,12.7,10.9,17.5c2.9,2.5,6,3.2,9.5,2.9c8.4-0.9,14.8,2.6,16.2,10.5
			c1.9,10.8,1.6,21.5-4.7,31.3c-1.9,3-5.1,4.7-6.6,7.9"/>
		<path class="st0" d="M135.1,521.4c-4.2-3.5-9.6-2.5-14.4-3.9c-6.8-2.1-13.4-0.3-19.8,2c-4.3,1.5-8.5,1.4-12.9,1.5
			c-7,0.1-14-0.8-20.9,1.4"/>
		<path class="st0" d="M265.7,546.8c-8.2-7.3-17.9-8.5-28.3-7c-8.4,1.2-16.8,3.7-24.9-1.8c-2-1.4-3.5-3.2-5.4-4.6
			c-1.9-1.5-3.8-1.7-5.5,0c-8.5,8.6-19.6,12.3-30.3,16.9c-1.8,0.8-3.6,1.6-5.5,2.5"/>
		<path class="st0" d="M455.9,555.2c-1.8,2.6,0.5,4.9,0.5,7.4c0,7.1,0.2,14.4-4.1,20.3c-6.4,8.8-6.6,18.8-7.4,28.9
			c-0.1,0.8,0.4,1.8-0.5,2.5"/>
		<path class="st0" d="M277.6,587.5c-1.2,2.4-0.3,4.7,0.5,6.9c0.1,0.4,0.9,0.6,0.9,1c1.2,11.9,10.9,16.1,19.4,21.4
			c9.3,5.8,17.7,12.6,23.4,22.3"/>
		<path class="st0" d="M327.7,637.2c6.1,6.3,6.1,13.8,0,21.3c-1.1,1.4-0.9,2.9-1,4.5c-0.3,5-2.4,8.6-6.1,10.5
			c-1.8-8.1-4.4-15.5-10.7-21.5c-5.7-5.4-10.6-11.6-17-16.3"/>
		<path class="st0" d="M224.5,478.2c-6.3,0.3-12.6-0.2-18.9,1.3c-6.4,1.5-11.7,4.5-16.8,8.2c-1.1,0.8-2,1.7-3.5,1.5"/>
		<path class="st0" d="M218,541.3c-7.3,8.2-15.9,14.1-27.3,15.5c-3.8,0.5-8,1.6-9.9,5.8"/>
		<path class="st0" d="M311.9,186.2c4.9,0.4,6.2,4.9,8.3,8c4.7,6.8,6.8,14.8,9.9,22.3c0.7,1.7,1,4.2-0.9,5.9"/>
		<path class="st0" d="M260.7,28.3c-3.6,5.4-4.5,11.8-4.7,17.9c-0.2,6.7-2.1,13.2-1.8,19.9"/>
		<path class="st0" d="M450.9,47.2c-2.1,0-3.3,0.3-4.1,2.9c-2.8,9.7-7.2,18.9-14,26.1c-4.1,4.3-8.4,9.3-14.7,11.2
			c-0.2,0.1-0.4,0.6-0.5,1c0,0.1,0.3,0.3,0.5,0.5"/>
		<path class="st0" d="M284.3,608.9c-1.1,4.3,1.9,7.6,2.8,11.4c0.5,2,1,4.1,2,5.9c4.2,7.6,4.3,16.3,5.6,24.4
			c1.4,8.7,2.5,17.5,4,26.2c1.3,7.5,0,15.7,4.9,22.5c0.4,0.6,0.3,2.9-1.1,3.9"/>
		<path class="st0" d="M122.2,388.4c-4.9-1.2-8.9,2.2-13.3,3.3c-5.7,1.3-11,4.4-16.8,6.1c-4.1,1.2-8.7,4.4-9.9,10.9
			c-1.8,9.3-2.6,18.7-4.7,27.9c-0.4,1.7-1.5,3.3-1.9,5c-0.5,2.5-2.3,3.2-4,2.4c-4.2-2-8.5-1.8-13-2c-2.4-0.1-4.8-0.8-7-2.3
			c-2.8-1.9-5.9-2-8.9-0.1"/>
		<path class="st0" d="M635.6,519.5c0.5-1.3,2-2.6,0.9-3.9c-4.8-5.8-7.5-13.2-14.8-17.1c-2.8-1.5-4.6-1.9-7.1,0.1
			c-6.1,5-12.2,9.9-16.9,16.4c-3.8,5.2-8.8,9.4-14.6,13.1c2.1,2,0.7,4.1,1.8,5.8"/>
		<path class="st0" d="M220.5,254.3c-4.2,2.6-8.6,4.8-11.9,8.5c-5.6,6.2-9.8,12.6-8.8,21.9c0.3,2.8-0.4,7.5-5,9.6
			c-4.7,2.1-6.6,10.4-4.5,17.7c1.5,5.4,2.4,11.2,6,15.8c1.3,1.7,0.6,3.4,0.9,5"/>
		<path class="st0" d="M477.7,508c3.9,1.9,4.6,5.9,5.9,9.5c2.4,6.7,6.2,12.1,11.9,16.5c8,6.1,15.3,13.1,22.5,20.2
			c5,5,11,8.4,17.9,9.9c2.8,0.6,4.4,2.6,6.4,4.1c1.7,1.3,3.2,2.6,5.5,1.4"/>
		<path class="st0" d="M71.5,484.7c2.1,3.2,5.9,3.6,9,4.9c6.6,2.6,11.3,7.4,16.3,12c3,2.8,6,5.6,8.9,8.4"/>
		<path class="st0" d="M156.4,380.4c7,3.3,14,6.5,20.8,10c8.4,4.2,13.6,12.2,20.9,17.8c4.9,3.8,9.1,8.7,15.4,10.5"/>
		<path class="st0" d="M275.1,560.2c-1,0.2-1.8,1.1-3,0c-4.5-3.9-11.2-4.2-14.9-9.5c-0.8-1.1-2-1.3-3-0.9c-2.9,1.1-4.9-0.1-7-2
			c-2.5-2.3-5.9-1.7-8.9-2.4c-0.7-0.2-1.4,0.8-2.1,1.8c-4.8,7.3-8.9,14.9-12.1,23c-0.7,1.8-1.7,2.9-3.1,3.9"/>
		<path class="st0" d="M414.2,387.9c-8.6,3-16.1,7.8-22.4,14.4c-0.8,0.9-1.5,1.7-1.5,3c0.1,1.8,0,3.5-2.5,3.5c-1.9,0-3.7-0.4-5-2
			c-2.9-3.6-3.1-8.2-4.3-12.5c-0.8-2.9,1.9-4.4,4.8-2.9c1.9,0.9,3.1,2.3,3,4.5"/>
		<path class="st0" d="M361.5,457.4c6,2.7,12.5,2.8,18.9,2.4c5-0.3,9.9-1.4,14.9-1.4"/>
		<path class="st0" d="M235.4,545.3c-2.5-1.8-4.3-1.1-5.4,1.5c-3,6.9-6.4,13.8-8.8,20.9c-2.2,6.2-1.8,13-0.8,19.3
			c0.5,3.7-0.3,7.5,1.2,11"/>
		<path class="st0" d="M70.5,241.9c-9.6,0.4-19.2,0.6-28.3,4.4c-1.9,0.8-3.3,2-4.9,3"/>
		<path class="st0" d="M127.1,478.2c11.9,5.5,21.4,13.8,30.5,23.1c5.9,6.1,12.4,11.8,18.8,17.4c2.3,2,6,2.3,9.3,1.6"/>
		<path class="st0" d="M522.4,126.6c0.7,1.9,2.5,3.2,3.6,4.9c3.7,5.7,2.9,12.1-2.6,15.4c1.1,6.4-1.1,11.7-6.1,15.3
			c-4.7,3.4-9.8,6.4-16.2,6.9c-0.8-2.3-2.4-4.5-5.5-4.7"/>
		<path class="st0" d="M543.8,360c-0.9,8.5-5.7,15.3-10,22.3c-2.2,3.6-4.9,6.8-6.8,10.5c-0.8,1.6-1.6,1.9-3.1,1.9"/>
		<path class="st0" d="M242.8,139.1c3.8-2.1,8.9-1.7,11.5-6.4c1.2-2.2,3-3.7,1.9-6.5c-1.3-3.2-3.7-4.8-7-5.5
			c-9.7-1.8-18.4,2.5-27.3,5c-7.6,2.1-12.1,8.1-16.2,14c-2.8,3.9-6.7,6.3-10.1,9.3c-1.5-2.7-6.8,1.5-6.9-4c-0.1-3.7,3.1-3.6,5-5"/>
		<path class="st0" d="M484.2,349.1c-4.3,3.4-6.8,8.4-10.3,12.5c-5.2,6.1-11.5,10-19,12.3"/>
		<path class="st0" d="M577.5,530.4c-0.3,1.9,0.6,3.3,2,4.5c7,6,12.9,13.3,19.4,19.8c2.3,2.3,5.2,4,7.9,6"/>
		<path class="st0" d="M442,445.5c-10.9-2.3-21.8-2.2-32.8-1"/>
		<path class="st0" d="M109.2,486.2c4.6,2.1,8.4,5.5,11.8,9c5.7,5.9,11.7,11.5,16.6,18.2c2.4,3.3,6.4,4.2,10.3,5.1
			c7.4,1.8,14.8,2.5,22.4,1.4"/>
		<path class="st0" d="M171.8,317.3c2.5,9.3,4,7.9-6,14.8c-3.8,2.7-6.4,5.7-6.7,10.5c-0.4,6-3.5,10.3-8.6,13.5
			c-5.6,3.4-6.9,10.3-3,15.3c2.6,3.3,5.7,6.2,8.9,9.7c-7.6,1.3-14.7,2.8-21.8,3.7c-7.4,0.9-12.7,4.4-16.4,11
			c-5.5,9.6-7.4,20.2-8.8,30.8c-0.4,3.4-1.6,6.6-2.1,9.9"/>
		<path class="st0" d="M40.2,404.2c9.4-0.6,18.6,1,27.8,2.4c3.6,0.6,7.3,1.3,10.4-1.5c1.2-1,2.3-0.4,3.5,0"/>
		<path class="st0" d="M294,324.3c4.5,9.5,9,18.9,12.5,28.8c0.4,1.1,0.2,2,0.4,3"/>
		<path class="st0" d="M63.1,369c9.4,2.3,17.5,7.5,26.4,10.8c6.9,2.6,14.1,4.7,21.3,6.4c4,1,7.8-1.1,11.4-2.9"/>
		<path class="st0" d="M562.1,473.3c-4,2.2-8.3,0.7-12.4,0.9c-5.3,0.3-10.9,0.9-14.2,5.2c-2.9,3.8-6.5,6.8-9.1,10.8
			c-4.7,7.3-11.6,12.6-18,18.2c-3.3,2.9-7.9,1.1-11.8,0.1c-5.1-1.3-10-3.2-14.9-4.9"/>
		<path class="st0" d="M513.5,519c0.8-1,2.3-0.8,2.9-0.4c3.1,2,6.8,1.7,10,3c3.8,1.5,8,1.4,11.1,5.3c8.7,10.7,18.3,20.8,27.1,31.5
			c4,4.9,9.4,8.1,13.5,12.8"/>
		<path class="st0" d="M156.9,412.7c2.6,1.3,3.8,2.8,2.9,5.4c-3.1,8.3,1.1,13.3,7,18c3.7,2.8,3.9,7.4,4.4,11.4
			c0.7,6.7,4.2,10.7,10.1,13.2c0.5,0.2,1.1,0.5,1,1.2"/>
		<path class="st0" d="M148,356.6c-1.7-1-3.4-2.1-5.5-2c-7.5,0.2-14.1-3.5-21.3-4.5c-3-0.4-6.1-0.9-8.9-0.3
			c-10.9,2.4-22.7,1.5-32.8,7.4c-7.7,4.5-15.9,8.6-21.8,15.5c-4.8,5.6-9.1,11.6-12.8,17.9c-1.7,2.8-3.4,3.5-6.1,3.4"/>
		<path class="st0" d="M196.6,616.8c-2.3,0-3,1.6-4.1,3.4c-3.8,6.6-8.3,13-12.6,19.2c-7.5,10.6-15,21.4-24.5,30.6
			c-3.4,3.3-5.5,7.1-5.4,12.8c0.2,8.6-2.7,17-7.6,24.3c-0.5,0.8-0.7,1.3,0,2"/>
		<path class="st0" d="M466.8,596.9c-3.5,8.5-6,17.2-6.9,26.3c-0.4,4.2-0.1,8.4,4.9,10.5c2.3,1,4.2,3.2,6.5,3.7
			c2.3,0.6,2.8,2,3.4,3.6"/>
		<path class="st0" d="M533.3,358.1c-0.6,2.4-2.3,2.7-4.5,3.1c-8.3,1.4-10.7,5.4-8.9,14.3c0.7,3.7,1.4,7.3,2.5,10.9
			c1.4,4.6,1.9,8.7-1.9,12.5c-1.1,1.2-2.7,3.1-1.6,5.4"/>
		<path class="st0" d="M549.2,394.3c-6,4.1-12.9,6.8-19.9,7.7c-10.2,1.4-16.4,7.3-21.9,15c-3,4.1-6,8.6-11.3,10.5"/>
		<path class="st0" d="M395.3,220c-11.9,6.1-19.9,16.2-27.3,26.8"/>
		<path class="st0" d="M618.8,496.6c-0.2-1.5,1.2-3.1-0.9-4.5c-6.4-4.4-12.2-9.7-20.4-10.4c-3.4-0.3-5.3-3.6-8.4-4.4
			c-7.7-2-15.5-3.9-23.3-1.3c-2.3,0.8-3.1,0.7-4-1.2"/>
		<path class="st0" d="M301.9,190.7c-6.1-3.5-13.4-3.8-19.3-7.8c-1.7,2.7,0.9,4.6,0.4,7.1c3.6,0.5,6.8,2.1,10,3.6
			c3.8,1.8,7.4,3.4,9.1,7.9c1.3,3.4,4.6,5.4,7.8,7c2.6,1.2,3.2,3.7,2.3,5.4c-3.2,6.8-1.3,13.6-1,20.4c0.1,4.1,2,7.8,1.6,11.9"/>
		<path class="st0" d="M516,462.4c-2.6,4.8-7,7-11.9,9.1c-4.1,1.8-8.1,3.8-12.4,4.9c-1.5,0.4-2.7-0.2-4-0.1"/>
		<path class="st0" d="M154.9,472.3c5,6.4,11,11.7,17.9,15.8c3.7,2.1,5.9,5.9,9.9,7.6"/>
		<path class="st0" d="M220.5,222.5c3,9.8,6,19.5,8.9,29.3"/>
		<path class="st0" d="M155.4,381.9c0.2,1.5-0.5,2.5-1.5,3.5c-8,8.4-13.5,18.1-16.4,29.3c-1.1,4.1-3.2,7.8-5.5,11.4
			c-0.6,0.9-0.7,1.7,0,2.5"/>
		<path class="st0" d="M309.9,519c-0.3,2.3,0.8,4.3,1.5,6.5c2.8,8.9,3.7,18.3,7.9,26.8c1.5,3.1,3,6.3,4.5,9.4"/>
		<path class="st0" d="M475.7,608.9c3,6,5.7,12.1,9,17.8c2.1,3.5,1.9,7.6,3.9,11"/>
		<path class="st0" d="M393.8,361.5c-7.7,7.9-13.5,17.3-19.9,26.3c-1.4,2-1.2,3.9-1.5,6c-0.2,1.5-0.7,3.4-2.4,3.9
			c-2.4,0.7-2.7-1.6-3.4-2.9c-1.9-3.7-1.3-6.9,1.4-8.9c1.1-0.9,1.4,0.2,2,0.5"/>
		<path class="st0" d="M184.7,90.9c0.6,6.2,3.5,11.8,4.7,17.8c1.2,6,2.5,11.8,2.3,17.9"/>
		<path class="st0" d="M324.8,354.1c3.6-0.1,3.6-3,2.8-4.9c-0.8-2-2.8-3.5-5.8-2.7c-2.7,0.7-4.6,1.8-4.8,4.6c-0.1,1.5,1,2.7,2.9,2.5
			c1.6-0.2,3.1,0,4.5,1"/>
		<path class="st0" d="M284,155.9c-0.5-0.2-1.1-0.6-1.5-0.5c-8.2,3.8-17.5,2.7-25.8,5.9c-7.5,2.9-14.8,13.7-13.9,20.4"/>
		<path class="st0" d="M489.1,399.3c4.1,6.7,6.3,13.9,5.5,21.9c-0.2,1.8,0,3.6,0,5.5"/>
		<path class="st0" d="M415.2,518c7,6.4,12.4,14.2,17.8,21.9c1.2,1.6,1.7,3.4,4.1,3.4"/>
		<path class="st0" d="M549.7,373c-1.3,2.3-0.3,4.8,0.1,6.9c0.6,3,1.2,5.9,0.4,9c-0.2,0.9-0.3,1.9,0.4,3c2.8,4.6,0.9,9-0.9,13.4
			c-0.7,1.7-0.9,3-0.2,5c1.5,4.1-1.5,8.1-1.8,12.3c-0.1,0.6-0.6,1.5-1,1.9c-7.4,8.7-11.3,19.7-19.3,27.9c-3.3,3.4-7.7,5.5-11.7,7.9
			c1.2,3.3,3.2,1.3,4.7,1.6"/>
		<path class="st0" d="M558.2,201.6c-5.4,3-10.9,1.1-16.4,0.5c-9-1.1-17.1-4.8-25.3-8.4c-1-0.5-2-0.6-3,0"/>
		<path class="st0" d="M493.6,551.7c5.3,1.7,5.2,7.2,7.3,11c2,3.7,2.5,8.2,1,12.3c-0.7,1.8,0.4,2.7,0.7,4c1.7,7.8,2.2,15.5,0.4,23.4
			"/>
		<path class="st0" d="M224.5,187.2c0.7,9.1,1.3,18.2,2,27.3"/>
		<path class="st0" d="M253.3,457.4c-6.3,0.8-6.3,0.8-8.5-5.5c-0.4-1.2-0.9-3-2.4-2.9c-4.9,0.4-9.2-2.2-13.9-2.6"/>
		<path class="st0" d="M260.2,349.1c3.1,6.1,6.5,12.1,9.3,18.4c1.8,3.9,4.4,5.9,8.5,6.4"/>
		<path class="st0" d="M521.4,515.5c8.9,2.2,17.4,6.1,26.8,5.5"/>
		<path class="st0" d="M107.3,559.7c3.9-2.3,7.7-0.2,11.4,0.6c5.3,1,10.4,1.8,15.9,1.7c3.7,0,7.6,0.7,11.4,0.6
			c3.2-0.1,6.6,0.9,9.5-1.8c1-0.9,3-0.2,3.4,1.9"/>
		<path class="st0" d="M634.2,513.5c-4.6,1-8.6,3.2-11.4,7c-3.6,4.8-8.7,7.9-12.9,11.9"/>
		<path class="st0" d="M466.3,517.5c-8.6-1.8-17.1-4.3-25.3-7.4"/>
		<path class="st0" d="M210.5,227.5c5.7,6.7,6.9,15.3,9.4,23.4c0.2,0.8,0.5,1.4,1.1,2"/>
		<path class="st0" d="M100.3,202.1c-0.2,1.5-0.8,3.2-0.4,4.4c1.2,3.5-0.5,5.3-3.1,7c-4.4,3-9,5.9-11.9,10.4c-1,1.6-2.3,1.2-3.5,1.5
			c-8,1.7-15.9-1.3-23.8-0.5"/>
		<path class="st0" d="M358,554.7c1.4,2.5-0.7,3.6-2,5c-5.7,5.8-12.5,10-19.9,13.4"/>
		<path class="st0" d="M546.3,152c-6.3-0.7-11.4,2.9-16.9,5c-2.6,1-4.8,3.2-7.9,3"/>
		<path class="st0" d="M354.1,410.2c-5,1.5-5.2,1.8-2.5,6.4c1.8,3,1.2,5.3-2,6.4c-4.6,1.6-8.9,4.2-13.9,4.5"/>
		<path class="st0" d="M183.2,553.7c-5.7,6.3-13.5,8-21.4,9.3c-1.8,0.3-3.4,0.5-4.5,2.1"/>
		<path class="st0" d="M227.4,643.1c-2.8,1.4-4.4,4.2-7.4,5.7c-2.7,1.3-2.2,5.2-2.9,7.8c-1.4,5.7-3.9,10.4-8.1,14.4"/>
		<path class="st0" d="M164.4,186.7c-3.8,1.8-7.2-0.3-10.4-1.6c-5.8-2.5-11.6-3.9-17.9-3.9c-1.4,0-2.8,0.2-4.4,1.3
			c-0.8,3.2,4.3,5,2.9,8.6"/>
		<path class="st0" d="M192.7,434.5c-7.3-0.3-14.6-1.3-21.8,0.5c-0.7,0.2-1.3,0.6-2,1"/>
		<path class="st0" d="M67.5,77c4.5,8.4,9.8,16.3,16.9,22.8"/>
		<path class="st0" d="M98.3,271.7c-4.6,0.9-9.3,0.3-13.9,0.6c-3,0.2-6.3-0.1-7.9,3.4"/>
		<path class="st0" d="M168.8,227c6,3.1,12,6.3,18.9,6.8c1.9,0.1,3,1.5,4.7,1.6"/>
		<path class="st0" d="M173.3,251.8c-1,9.5,0,19.2-3.5,28.3c-1.4,3.6-0.3,7.6-2.4,10.9"/>
		<path class="st0" d="M200.6,285.6c8,4.7,14.7,11,21.9,16.9"/>
		<path class="st0" d="M444,234.9c-7.6-0.1-15.3,0.4-22.8-1"/>
		<path class="st0" d="M96.8,511c-5.2,0.5-9.6-2.4-14.3-3.7c-9-2.5-17.6-6.1-26.4-9.2"/>
		<path class="st0" d="M274.6,264.2c2.2,7.3,3,14.9,4.5,22.3"/>
		<path class="st0" d="M177.8,586.5c-7.4-1.9-14.9-0.3-22.3-1.5"/>
		<path class="st0" d="M422.6,58.6c1.3,8.4-0.4,15.8-7.4,21.4"/>
		<path class="st0" d="M88.4,322.8c5,1.8,10.3,1.1,15.4,1.9c2.9,0.5,5.8,0.7,8.4,2.1c4.6,2.3,9.5,4,14.4,4.8
			c11.1,1.6,21.6,5.2,32.3,8.1"/>
		<path class="st0" d="M121.2,461.4c1.7,0.2,2.6,1.2,2.5,3.5c-7.4-0.4-15.3-0.6-21.7,3.2c-6.5,3.8-14.5,2.5-20.5,7.2
			c-1.6,1.3-2.6-0.6-4-0.5"/>
		<path class="st0" d="M137.1,522.9c6.5,0.1,12.9,0.4,19.4,1.6c4.6,0.9,9.6,0.6,14.3,1.9"/>
		<path class="st0" d="M170.3,653.5c1.3,7.1,1.8,14.2,1.5,21.4"/>
		<path class="st0" d="M645.1,531.9c-6,0.8-11.9,1.9-17.9,2.4c-5.6,0.4-11.5,0.8-16.8-1.5c-2.2-0.9-3.5,0-5,1.1"/>
		<path class="st0" d="M329.7,446.5c4.3,4.7,10.2,8.1,11.6,15.1c0.2,1,2.5,2,4.3,1.8"/>
		<path class="st0" d="M278.6,451.4c3.3-3.8,0.9-7.7-1.2-10.2c-1.9-2.3-5-5.2-9.4-1.9c-1.6,1.2-5,1.5-7.8,1.3
			c-4.3-0.2-8.6,0.2-12.9,0.4"/>
		<path class="st0" d="M526.4,481.7c-5.9-0.3-10.9,2.5-15.8,5.1c-1.7,0.9-2.8,2.7-5,1.4"/>
		<path class="st0" d="M255.7,414.7c-2.1-1-2.3-3.3-3.5-4.9c-0.7-1-1.6-2.1-2.9-1.5c-1.1,0.5-1.8,1.6-2,2.9
			c-0.5,3.4,1.2,5.8,3.5,7.9"/>
		<path class="st0" d="M433,20.4c0.1,5-1.7,9.7-3.2,14.3c-0.6,2-1.1,3.6-0.3,5.5"/>
		<path class="st0" d="M339.7,328.3c0,6.6,0,13.2,0,19.9"/>
		<path class="st0" d="M504.5,603.4c-4.1-1.8-3.6,1.3-3.4,3.5c0.3,5.3-0.2,10.5-2.5,15.4c-0.4,0.7-1,1.3-1.5,2"/>
		<path class="st0" d="M122.6,299c-5.8,2.5-12.3,3.6-17.5,7.8c-0.6,0.5-2.6-0.5-3.9-0.9"/>
		<path class="st0" d="M496.1,552.2c0-5.2-2.9-9.1-6.5-12.4c-2.3-2.1-4.2-3.8-5.7-6.9c-3.2-6.7-8.2-12.1-16.1-13.5"/>
		<path class="st0" d="M370.5,403.8c-5.1,0.1-6.1,2-5.3,6.4c0.4,2.2-0.6,4.4,0.5,6.4c-1.7,0.7-3.2,1.4-4.5,1.9
			c-1.2,1.8,0.6,2.5,0.9,3.7c0.4,2.4-0.5,4.4-2.5,5.3c-1.4,0.6-3.3,0.1-4.4-1.4c-0.7-0.9-1.3-2-2-3"/>
		<path class="st0" d="M170.8,146.5c0.2,4.5,1.7,8.3,6.3,10.1c2.7-2.1,1.1-4.8,1.6-7.1"/>
		<path class="st0" d="M307.9,475.8c0.5,4-0.9,7.7-2.1,11.4c-2.3,0.7-5-0.9-7.3,1c-3.1,2.6-2.8,6.1,1,7.4c3.1,1.1,6.3,1.8,9.4,2.5
			c2.1,0.5,3.5-0.8,4.5-2.5c1.1-1.8,0.4-3.3-1-4.4c-1.7-1.3-3.6-2.4-5.4-3.5"/>
		<path class="st0" d="M113.7,314.4c6.4,5.5,12.8,11,18.4,17.4"/>
		<path class="st0" d="M311.4,326.8c-2.4,1-3.7,3.2-1.9,4.8c5.2,4.5,4.3,10.3,4.4,16c0.1,4.2-0.3,8.4,1,12.4"/>
		<path class="st0" d="M583,198.2c-6.1,2.9-12.9,2.7-19.4,3.5"/>
		<path class="st0" d="M222.5,597.4c-1.3,4.6-2.7,9.3-3.9,13.9c-0.3,1.1-0.4,2.5,0,3.4c2.2,4.4,2,9.3,3.1,13.9
			c0.6,2.7,0.3,6.5,4.3,7.6c0.5,0.1,1,1.6,1,2.4c0,4.1,2.1,7.5,3.8,10.8c1.4,2.7,1.8,4.9,1.2,7.6"/>
		<path class="st0" d="M519.4,196.2c0.5,5.2,1.3,10.3,4.8,14.5c1.9-0.7,3.8-0.7,5.2-2.1"/>
		<path class="st0" d="M251.3,136.6c0.4,4-2.7,6.8-3.5,10.4c-1.6,6.8-3.4,13.6-4.9,20.4c-0.4,1.8-0.4,3.9,1.2,5.4"/>
		<path class="st0" d="M70.5,532.4c3.5,7.3,10.6,10,16.9,13.9"/>
		<path class="st0" d="M171.8,574.1c-2,2.1-4.7,0.6-7,1.4c-3.4,1.1-7.2,1.4-9.9,4.1c-2,2-4.7,2-7,2.9"/>
		<path class="st0" d="M585,529.9c4.3,2.6,9.3,1.3,13.9,2.3c2.9,0.7,5.4,1.5,7.4,3.6c5.1,5.1,10.3,10.3,15.4,15.4"/>
		<path class="st0" d="M270.1,446c-6.1,2.3-12.2,4.6-18.4,7"/>
		<path class="st0" d="M180.3,142c1.5,2.5,2,5.4,3.3,8c1.6,3.4,2.7,7.2,1.8,11.4c-0.8,3.7,0.2,7.3,2.2,11c4.8,9-1.2,17.3-11.3,18.3
			c-2.5,0.2-4.7-0.7-7-1.5c-5.5-2-5.8-2.7-4-8.4"/>
		<path class="st0" d="M584,197.7c4.9-2.8,9.2,1.4,14.7,0.1c-3,5.5,3.7,4.9,3.7,8.9c-6.9-1.2-12.3-5.6-18.4-8.1"/>
		<path class="st0" d="M547.2,152.5c2.6,3.8,1.7,8.9,4.9,12.5c0.3,0.3-0.1,1.3-0.4,2c-2.7,8.6-0.6,10,5.9,15.9"/>
		<path class="st0" d="M32.3,153c-5.1-4.6-10.4-8.7-17.9-7.4"/>
		<path class="st0" d="M357.5,397.8c0.1-3.3-1.2-6.2-3-9c-1.2-1.8-3-1.9-4.5-1.4c-2.1,0.7-2.5,2.9-1.9,4.8c0.7,2.1,1.9,4,2.9,6"/>
		<path class="st0" d="M461.3,418.2c2.6,5.9,5.1,11.8,5,18.4"/>
		<path class="st0" d="M151.5,169.4c3.7,6.2,6.5,7,11.9,2.9c1.2-0.9,2.3-0.8,3.5-0.9"/>
		<path class="st0" d="M266.2,435.5c-5.9,1-11.8,2.4-17.9,1.5"/>
		<path class="st0" d="M100.8,205.6c6.4,0.2,11.4,3.6,16.4,7c4,2.7,8,5.6,11.9,8.4"/>
		<path class="st0" d="M443.5,538.8c3.9,6.9,6.1,14.5,8.9,21.9c0.7,1.7,1.3,3.3,2,5"/>
		<path class="st0" d="M207.1,671.9c-4.4,7.9-9.7,15-17.9,19.4"/>
		<path class="st0" d="M441,610.8c4,6.3,8.4,12.3,14.9,16.4"/>
		<path class="st0" d="M581,196.7c-5.9-1.6-11.6,0.7-17.4,1"/>
		<path class="st0" d="M495.1,625.2c-1.1,6-4.1,11.4-6.5,16.9"/>
		<path class="st0" d="M82.4,548.8c3.4-0.1,6.5,0.3,9.5,2.4c4.8,3.3,10.6,4.2,16.3,5c1.4,0.2,3.1-0.4,3,2"/>
		<path class="st0" d="M108.7,387.9c-3.5,1.7-6.8,3.9-10.5,4.8c-4.6,1.2-5.7,3.9-4.9,8.1"/>
		<path class="st0" d="M185.7,121.7c-0.5,3.1,0.6,6.2,0.2,9.5c-0.4,3.6,2.2,4.3,5.3,2.7"/>
		<path class="st0" d="M258.2,168.4c-4,2.2-6.5,6.2-10,8.9c-6.2,4.7-7.6,12-10.2,18.5c-1.1,2.7-1.5,5.6-3.6,7.9
			c-1.1,1.3-1.9,3-1.6,4.9"/>
		<path class="st0" d="M296.5,422.6c2.6,3.1,2.5,8,6.9,10c2,0.9,4.8,0.4,6,2.9"/>
		<path class="st0" d="M314.3,80c4.3,5.1,2.8,12.4-3.5,16.9c-1.3,1-2.7,2-4,3"/>
		<path class="st0" d="M188.2,185.2c2,5.5,2.1,11.5,4.5,16.9"/>
		<path class="st0" d="M283.1,182.8c0.5-2.2,1.8-3.4,4-4c3.2-1,6.4-1.4,9.6-2.6c3-1.2,6,2.2,8.8,3.8c6.2,3.5,8,10.5,8.1,16.3
			c0.2,8.1,4.4,13.5,8.5,19.3c1.8,2.6,3.5,5.7,6.8,7.1c0.7,0.3,1.3,1.2,1.5,1.9c0.9,4.9,3.6,9.2,5,13.9"/>
		<path class="st0" d="M204.6,116.7c1.8,5.4,2.5,10.8-0.6,16c-6.9-1.7-7.9-4.8-4.4-12"/>
		<path class="st0" d="M136.1,595.4c2,0.1,2,0.1,4.3,1.7c-4.7,2.6-9.5,5.3-11.7,10.2c-3.4,7.9-11.9,12-14.5,20.3"/>
		<path class="st0" d="M417.1,63.6c1.3,1.8,0.2,3.3-0.5,5c-2.3,5.2-1.6,11-3,16.4"/>
		<path class="st0" d="M115.2,629.7c-3.8,5.2-7.4,10.2-7.8,17.4c-0.2,3.4-3,7.2-4,11c-0.4,1.6-0.7,3.8,1.9,4.4"/>
		<path class="st0" d="M131.1,428.1c-3.7,1.2-5.6,4.6-8.8,6.7c-7.2,4.5-14.9,6.1-23,6.7"/>
		<path class="st0" d="M287,381.9c4.5-0.9,6.9,1.2,8,5.5c0.5,1.9,1.3,3.6,2,5.5"/>
		<path class="st0" d="M552.7,165.4c4.8,1.4,6.5,3.9,6.5,8.9c0,5.6-1.7,11.3,0.5,16.9c1,2.6,2.7,5,1.5,7.9"/>
		<path class="st0" d="M195.7,149.5c0.8,2.3-1.3,3.7-1.8,5.5c-0.9,3.2-2.7,6.1-1.8,9.9c0.7,3-0.6,5.8-4.3,6.4"/>
		<path class="st0" d="M107,693.3c-0.2-0.8,0.5-0.4,0.7-0.5c0.5-0.1,1.2-0.2,1.5,0c0.9,0.7,1.7,1.6,2.6,2.5c-2.2,3.5-3.6,7.2-2,11.3
			c0.4,1.1-0.3,1.4-0.6,2"/>
		<path class="st0" d="M271.6,595.4c3.9,1.5,4.4,5.5,5.3,8.5c1.9,6.4,5.9,12.6,4.2,19.8c0,0.1,0.9,0.5,1.4,0.7"/>
		<path class="st0" d="M344.6,351.1c0.2,0.8,0.1,2.3,0.5,2.4c5.1,1.8,5.1,6.3,4.2,10c-0.8,3.2-0.7,6.3-0.7,9.5c0,4-2.6,5.8-6,4
			c-1.2-0.6-2.3-1.3-3.5-2"/>
		<path class="st0" d="M142,680.9c-8.2,8.3-18.3,14.4-26.9,22.3c-1.2,1.1-2.8,1.7-2.9,3.5"/>
		<path class="st0" d="M179.8,115.7c-0.3,5.3,0.6,10.6-0.5,15.9"/>
		<path class="st0" d="M143,465.8c1-2,2.7-2,4.5-1.5c6.5,1.9,13.5,2.9,18.4,8.4c0.3,0.3,1.4,0.4,1.9-0.4"/>
		<path class="st0" d="M123.1,147.5c0.2,2.6-0.5,5-1.1,7.6c3.6,2.2,5.9,0.4,7.5-2.7c1.5-2.7-0.6-6.6-4.4-8.9"/>
		<path class="st0" d="M237.9,200.1c5.4-0.4,10.4,1.4,15.4,3"/>
		<path class="st0" d="M282.6,458.4c0-2.4-2.2-3.6-3.3-5.3c-1.9-3.1-5.7-4.3-10-2.3c-1.4,5.1,3.6,7.4,5.8,11"/>
		<path class="st0" d="M148,383.4c0.1,3.4-3,5.1-3.9,8c-0.8,2.2-2.1,4.5-0.5,6.9"/>
		<path class="st0" d="M425.6,569.6c2.5,4.2,0.5,9,1.5,13.4c0.7,3.2,0.3,6.7,2.5,9.4"/>
		<path class="st0" d="M180.3,185.2c-1,0-2.1-0.3-3,0c-5.2,2-4.7-2.6-5.4-5c-1-3.9,0.6-5.9,3.8-7c3.2-1.1,4.4,1.8,6.4,2.8
			c0.7,0.4,1.5,3.3,0.1,4.7c-2.7,2.7-1.2,4.8,0.5,7"/>
		<path class="st0" d="M316.8,575.1c2.4,4.9,6.6,8.9,6.5,14.9"/>
		<path class="st0" d="M173.8,352.1c-4.8-2.4-9.5-4.8-14.9-5.5"/>
		<path class="st0" d="M68.5,126.6c4.8,3.9,9.3,8.2,14.9,10.9"/>
		<path class="st0" d="M437,25.3c-2,5-2.7,10.6-6.5,14.9"/>
		<path class="st0" d="M545.8,360.5c2.2,3.6,2.8,7.5,1.4,11.4c-0.7,2,0.3,2.4,1.6,3"/>
		<path class="st0" d="M176.3,647.1c0.5,4,1,7.9,1.5,11.9c0.1,1.2,0,2.3,1.5,2.5"/>
		<path class="st0" d="M50.6,495.6c3,0.3,4.9,1.4,5.6,4.9c1,5.1,4.8,8.9,7.8,12.9"/>
		<path class="st0" d="M379.9,403.8c-1.6,2.3-3.7,4-6,5.3c0.4,1.6,0.5,3.2,1.1,4.6c1.3,3.5,0.6,7-2.6,8.2c-3.4,1.4-5-2.1-6.8-5.3
			c1.5,0,2.7,0,3.9,0"/>
		<path class="st0" d="M359.5,486.7c4.8,2.8,9.5,5.8,14.9,7.4"/>
		<path class="st0" d="M320.3,673.9c-2.3,4.7-3.4,9.9-7,13.9c-1.4,1.6,0.5,2.6,0.5,4"/>
		<path class="st0" d="M302.4,464.8c5.8-4.2,9-4.5,12.4-1.5c1.9,1.7,2.1,3.6,0.9,5.4c-1.4,2.1-3.4,3.1-5.9,1.5
			c-1.5-0.9-2.9-2.2-4.5-2.9c-4.5-2.1-7.1-1.2-10.4,3.4c4.1,5.7,11.7,6.2,15.4,1"/>
		<path class="st0" d="M137.1,156.4c-1.5,0.1-3.2-0.6-4,1.5c-0.7,2.1,1.1,3,1.9,4.5c1.1,2.3,5.8,0.3,4.9,5
			c-4.8-1.6-9.7-2.1-14.7-1.1"/>
		<path class="st0" d="M74.5,428.6c0.8,5.6-1.6,10.2-4.5,14.6"/>
		<path class="st0" d="M152.9,584c-5.1,3.1-10.5,5.8-13.4,11.4"/>
		<path class="st0" d="M259.2,381.9c5.3-0.8,4.6,4,5.3,6.5c0.8,3,1.5,7.2-4.2,7.9c-4.1-4-2.5-9.1-2-14"/>
		<path class="st0" d="M161.4,152c1.4-1.6,3.6-2.3,4.5-4.4c-2.2-4.1-4.7-4.1-11.5-0.1c0,4.8,3.5,3.9,6.5,4"/>
		<path class="st0" d="M536.8,524.9c1.7-0.4,3.5-1.3,5,0.5c3.5,4.1,6.4,8.7,8.9,13.4c0.3,0.5,0,1.3,0,2"/>
		<path class="st0" d="M329.2,466.8c-5.3,0.5-9.2,3.4-12.9,6.9c1.9,6.5,4.5,6.9,10.4,1.5c1.8,0.6,2.3,2.3,3.5,3.5"/>
		<path class="st0" d="M233.4,652.6c0.2,0,0.4-0.1,0.5,0c3.8,5.9,9.1,10.9,9.9,18.4"/>
		<path class="st0" d="M115.2,390.3c0.1,2.8-1.1,5.4-2,7.9c-0.7,2.1-0.6,4.1,0.5,6"/>
		<path class="st0" d="M119.7,176.8c-3.8,0.7-9,5.2-9.4,8.4c-0.3,1.9,0.3,3.8,2,4.9c1.8,1.2,4.5,1.1,5.8-0.1
			c2.5-2.4,4.8-5.3,5.5-8.8c0.5-2.3,0.1-4.5-2.9-5"/>
		<path class="st0" d="M229.4,309.4c3.2,5.1,7.3,9.2,11.9,12.9"/>
		<path class="st0" d="M530.4,200.6c-1.6,3.7-3,6.5,2.3,9.3c2.9,1.5,4.4,6,9,6.3c0.7,6.5-2.3,12.5-1.4,18.7"/>
		<path class="st0" d="M206.1,585c-0.4,2.6-1.7,3.8-4.4,4.6c-4.4,1.3-9,2.7-13,5.3"/>
		<path class="st0" d="M130.6,152c4.7,0.4,8.9,2.4,13.4,3.5"/>
		<path class="st0" d="M288.5,695.3c2.5,1.8,4.7,4.2,7.5,5.3c4.4,1.9,7.2,4.8,8.9,9.1"/>
		<path class="st0" d="M635.6,541.3c0.7,1.6,0.9,2.8-1,4c-3.7,2.3-7.2,4.9-11.5,5.8c-1.6,0.4-2.9,0.6-3,2.5"/>
		<path class="st0" d="M425.6,56.6c1.9,4.4-1,9,0.5,13.4"/>
		<path class="st0" d="M260.7,571.6c5.2,2.3,5.5,7.6,7.4,11.9"/>
		<path class="st0" d="M335.7,484.2c1.4,2.4-0.3,4.5-1.2,6.4c-0.7,1.5-3,2.4-4.8,1c-2-1.5-3.8-3.5-3-6.4c1.3-4.6,4.3-7.6,8.9-8.9"/>
		<path class="st0" d="M265.7,393.3c2.8,1.3,4.8,3.3,6.6,5.9c2.3,3.4,5.2,6.4,7.8,9.5"/>
		<path class="st0" d="M364,434c-2.6,1.7-4.9,3.8-8.5,1.6c-1.3-0.8-3.5-0.5-4.9,1.3c-3.1,4.2-7,5.1-11.9,3.1
			c-1.4-0.6-3.3-0.4-4.9,0.4"/>
		<path class="st0" d="M409.2,64.6c0.7,1,2.4,1.4,2,3c-1.3,5-1.3,10.5-5.4,14.4"/>
		<path class="st0" d="M279.1,355.1c-1.5,0.2-1.3-1.5-2.4-2.1c-2.3-1.2-3.2,0.3-4,1.6c-0.7,1.3,3.9,10,5.4,10.9c2.4,1.4,3.5,0,3.9-2
			c0.3-1.4,0.1-3,0.1-4.5"/>
		<path class="st0" d="M124.1,463.8c9.5-1.7,17.6,0.8,23.8,8.4"/>
		<path class="st0" d="M623.7,554.7c-3.5-1.7-6.5,0.6-8.8,2.1c-4.7,3.1-9.7,5.4-15,7.3"/>
		<path class="st0" d="M258.2,682.8c-0.5-1.3-0.9-2.6,0.3-4.5c4.9,3.1,7.6,8.9,13.1,11.2"/>
		<path class="st0" d="M334.7,457.4c-2.2,0-4.2-0.1-6.1,1.9c-0.9,1-2.4,1.2-2.4,3.1c0,2.5,2.7,3.3,3.5,3.3
			c8.8-0.5,13.4,5.6,18.4,11.1"/>
		<path class="st0" d="M72,407.7c-0.6,5.7-6,6.7-9.5,9.3c-8.8,6.7-19.8,7.3-30.2,9.1"/>
		<path class="st0" d="M142,175.8c-3.1-4-4.9-4.4-10.5-2c0.1,3.7,2.9,4.9,5.4,3.8c5.9-2.5,11.1-0.4,16.6,1.4
			c1.3,1.8-0.2,3.2-1.1,4.8"/>
		<path class="st0" d="M155.9,413.2c-6.7,6.9-14.6,12-23.3,15.9"/>
		<path class="st0" d="M403.7,89.9c3.4,5,9.6,6.2,13.9,9.9"/>
		<path class="st0" d="M80.4,476.3c0,1,0.3,2.1-1,2.5c-5,1.5-8.8,5-12.9,8"/>
		<path class="st0" d="M247.8,667c2.4,4.9,6.5,8.4,9.9,12.4"/>
		<path class="st0" d="M309.4,687.8c-2,3.7-2.3,8.2-5.5,11.4"/>
		<path class="st0" d="M475.7,636.2c3.9,1.6,7,4.9,11.4,5.5c1.6,0.2,2.1,2,2.5,3.4"/>
		<path class="st0" d="M138.5,515.5c-5.6,2.3-10.9-1-16.4-0.9c-6.3,0.1-12.3-3.4-18.9-1.3c-3.8,1.2-6.1-3.1-8.9-5.3"/>
		<path class="st0" d="M149,668.4c0.9,2.9-2,4-3,5.9c-1.2,2.3-6.2,3.3-1.2,7.3c1.5,1.2,0.2,6,0.2,9.1"/>
		<path class="st0" d="M339.2,392.8c1.6,0.1,3.1-0.4,4.6,1.4c1.3,1.5,1.8,3.5,3.8,4.7c2.2,1.3,2.1,3.8,1,5.8
			c-0.8,1.4-6.5,0.4-7.3-1.5c-1.7-3.9-4.5-7.7-2.6-12.4"/>
		<path class="st0" d="M103.8,307.9c-3.7,3.1-8.9,4.6-10.4,9.9"/>
		<path class="st0" d="M590,570.1c-5.3,3.4-11.3,0.7-16.9,1.8c-0.4,0.1-1.5-0.9-2.4-0.3c-6.4,3.8-12.9,0.4-19.4,0.3
			c-2.6,0-3.7-3.1-5-5.3"/>
		<path class="st0" d="M184.2,634.2c1.1,3.9,0.2,8,0.5,11.9"/>
		<path class="st0" d="M436.5,557.7c2.9,2.3,1.9,6.1,0.8,7.8c-2.9,4.5-0.7,8.8-0.6,13.1c0.1,2.4,0.3,4.7-0.3,6.9
			c-0.8,3.4-0.4,6.7,0.6,9.9"/>
		<path class="st0" d="M275.6,386.9c1.8,4,3.6,7.9,5.5,11.9"/>
		<path class="st0" d="M427.6,577.1c3.8,2.8,4.3,8,7.9,10.9"/>
		<path class="st0" d="M62.6,486.2c3.4-0.4,5.2,1,5.5,4.5c-4.1,1.4-8.1,3-11.4,5.9"/>
		<path class="st0" d="M323.3,337.2c-0.1,3.8-2.1,4.7-5.5,3.5c-0.9-0.3-2-0.4-3-0.5"/>
		<path class="st0" d="M219,221.5c-4.8,2.5-9.2,5.7-14.9,6.6c-3.4,0.5-6.3,3.2-6.4,7.3c-0.1,2.1-1.5,2.9-2.6,3.9
			c-2,1.9-4.3,3.7-6.4,5.5"/>
		<path class="st0" d="M646.6,529.9c-1.1,4.2-3.5,7.3-7.4,9.6c-2.4,1.4-4.3,1.7-6.5,0.4"/>
		<path class="st0" d="M430,593.5c1.3,5.7,4.4,10.5,8,14.8c1.1,1.4,0.9,2.6,0.9,4"/>
		<path class="st0" d="M171.3,388.4c0.5,3.7-1,6.6-4.5,7.3c-9,1.9-9.8,7.4-8.4,15c0.1,0.5,0,1,0,1.5"/>
		<path class="st0" d="M177.3,191.7c3.5,3.8,7,7.6,10.4,11.4"/>
		<path class="st0" d="M255.2,144.5c-3.1,3.5-5,7.8-8.4,10.9"/>
		<path class="st0" d="M466.3,589c-1.1,3.6,0.1,5.9,2.8,8.6c4.4,4.4,7.3,10,5.6,16.7"/>
		<path class="st0" d="M133.1,380.4c-2.8,1-5.6,2.1-8.5,2.9c-1,0.3-1.8-0.3-2-1.5"/>
		<path class="st0" d="M458.4,575.6c0.5,0.7,1.3,1.3,1.4,2c2.4,9.3,9.7,12.7,17.9,14.9"/>
		<path class="st0" d="M319.8,456.4c1.1,3.7,4,6.8,4,10.9"/>
		<path class="st0" d="M486.7,422.6c0.2,3.6-0.4,7.3,0.5,10.9"/>
		<path class="st0" d="M632.7,519c2.5,0.6,4.8,1.3,6.5,3.4c2.2,2.8,5.1,4.8,8,6.9c1.7-0.8,3.6-1.6,5.4-2.4"/>
		<path class="st0" d="M490.6,414.7c0.3,3.6-0.7,7.3,0.5,10.9"/>
		<path class="st0" d="M310.4,368c-1.1,3.6-0.2,7.3-0.5,10.9"/>
		<path class="st0" d="M39.7,413.7c-5,2.6-6.8,5.6-8.5,14.3c3.7,3.2,7.7,6,13,6c2.8,0,2.4,2,3,3.5"/>
		<path class="st0" d="M272.6,577.1c-0.6,5.5,2.8,9.9,7.9,9.9c2,0,3.9,1.3,6,0.6"/>
		<path class="st0" d="M324.3,355.1c1,8,0.4,15.9-1,23.8"/>
		<path class="st0" d="M199.1,595.9c-3.5-0.5-7,2.5-10.4,0"/>
		<path class="st0" d="M94.3,382.4c1.7,4.2,6.7,3.7,9.4,6.5"/>
		<path class="st0" d="M363,371.5c0,0.2-0.1,0.4,0,0.5c2.4,1.5,2.4,3.7,1.4,6c-0.7,1.7-3,1.4-3.8,0.9c-1.9-1.2-3.2-3.2-3.1-5.8
			c0.1-3.8,2.7-2.3,4.5-2.5"/>
		<path class="st0" d="M271.1,372.5c-1,0.7-1.9,1.5-3,2c-2,0.9-2.9,2.6-2.4,4.5c0.7,2.5,2.5,3.1,4.9,2c0.2-0.1,0.6,0.3,1,0.5"/>
		<path class="st0" d="M305.9,497.6c-0.9,3.6,1.3,6.9,1,10.4"/>
		<path class="st0" d="M305.4,112.2c-4.1,0.1-7.2,2.3-10.4,4.5"/>
		<path class="st0" d="M347.6,368.5c-3.3-2.5-4.9-7-9.4-7.9c-1.2-0.2-2-1.9-3.6-0.1c-1.2,1.3-1.6,2.6-1.3,4c0.3,1.2,1,2.6,1.9,3.5
			c3.9,3.6,3.3,8,1.3,11.9c-1.6,3.2-1.6,6-0.2,8.8c-1.4,2.2-4.8,0.4-5.6,3.2"/>
		<path class="st0" d="M501.1,603.9c-3.5-1.7-6.3-4.9-10.4-5.5"/>
		<path class="st0" d="M247.8,436.5c-0.3-1.5-0.6-3-0.8-4.4c-4.4-2.1-6.7-0.3-7.6,3.9c-0.4,1.8-1.3,3.8,1,4.9
			c2.1,1.1,3.9,0.2,5.4-1.3c0.7-0.7,1-1.8,1.5-2.7"/>
		<path class="st0" d="M490.1,470.3c3.5,0.5,7,1,10.4,1.5"/>
		<path class="st0" d="M251.3,456.9c0.5-2.4-0.4-4.7-1.1-6.9c-1.2-3.8-2.6-4.1-6.4-1.5"/>
		<path class="st0" d="M272.1,692.8c-1.2-2.4-0.4-4,2-5c2,3.7,5.1,6.3,8.9,7.9c2.3,0.9,3.6,2.4,3.5,5"/>
		<path class="st0" d="M357.5,477.2c1.6,1.4,3.2,2.8,4.5,4c0,2.8-2.6,2.9-3.5,4.5c-2.3-0.8-4.5-1.2-7-0.6c-2.4,0.5-5.4,0.6-5.9-2.9
			c-0.4-3,1.5-5.4,4.4-5.8c1.6-0.2,2.8-1.6,4.4-1.2"/>
		<path class="st0" d="M225.9,215.3c0.7-0.4,1.7-0.7,1.9-1.3c2.7-6.4,7.5-5.5,12.4-3.4c1.1,0.5,2,0.2,3,0.4"/>
		<path class="st0" d="M186.7,691.3c-2.6,3.8-6.4,6.5-9.9,9.4c-0.9,0.8-2,1.9-3,1.9c-7.5-0.2-12.6,5.9-19.4,7.6
			c-2.3,0.6-5.6-0.2-6.5,3.4"/>
		<path class="st0" d="M359.5,443.5c2.1,1.1,4.4,0.7,6.4,0.4c2.3-0.4,4.4-0.9,6,1.1c1.6,2.1,3,0.2,4.5,0"/>
		<path class="st0" d="M177.3,170.3c2.7-3.5-0.5-4.9-2.5-5.8c-2.6-1.2-5.2,0.6-6.8,2.4c-1.4,1.7-1.3,4.2,0.9,5.8
			c1.1,0.8,2.3,1.3,3.5,2"/>
		<path class="st0" d="M378.4,171.3c-3.3,0.3-6.7-0.6-9.9,0.5"/>
		<path class="st0" d="M500.6,158.4c1.7,3.1,2.7,6.4,3,9.9"/>
		<path class="st0" d="M224.5,430.6c-1.7,0.7-1.2,1.9-0.5,3c1.8,2.7,3.5,5.4,5.5,7.9c0.8,1,2,2.1,3.9,1.1c2-1,1.6-2.6,1.4-4
			c-0.8-4.7-3.8-7.1-8.4-8"/>
		<path class="st0" d="M165.4,131.1c4.6,0,6.9,3,7.4,9.4"/>
		<path class="st0" d="M147,157.4c2.8,2,5.7,4,2.6,8c-0.3,0.4-0.9,2,0.8,3c2.8,1.6,2.7-2.1,4.5-2.1"/>
		<path class="st0" d="M115.2,157.4c3.3,0.9,6.4,2.2,8.3,5c0.8,1.2,2.1,3.1,0.2,4.9c-1.6,1.5-2.7,0.2-4,0c-1.6-0.2-2.1-1.9-3.5-2.1"
			/>
		<path class="st0" d="M276.6,382.4c4.7-0.4,5.1,3.5,6.5,6.5"/>
		<path class="st0" d="M192.7,122.2c2,3.3,1.1,6.4-0.5,9.4"/>
		<path class="st0" d="M376.4,428.6c-4.3,0-8.6,0-12.9,0"/>
		<path class="st0" d="M341.2,404.2c-2.2,3.1-4.3,6.3-6.5,9.4"/>
		<path class="st0" d="M367,396.8c-4.2,1.3-6,5.3-8.9,7.9"/>
		<path class="st0" d="M206.6,106.8c-0.3,3,0.6,6-0.5,8.9"/>
		<path class="st0" d="M495.6,172.8c2.7,4.1,5.9,8,6.1,13.4c0.1,1.5,1.7,3,2.6,4.5"/>
		<path class="st0" d="M43.7,393.3c1.2,1,1,1.9,0,3c-4.5,4.6-5.6,10.9-8.5,16.4"/>
		<path class="st0" d="M145,139.6c2.5,2.7,1.1,5.6,0.4,8.4c-0.7,2.7-3.1,2.8-5.4,3c-3,0.2-2.5-2.4-2.9-4c-0.6-2.3-0.7-4.8-4-4.5"/>
		<path class="st0" d="M146,148.5c2.7,2.7,5.6,5.2,8.9,7"/>
		<path class="st0" d="M315.8,375.9c0-2.3,0-4.6,0-7c-2.4-0.6-5.2-0.7-6.1-3.7c4.3-6.1,7.9-6.2,14-0.7"/>
		<path class="st0" d="M122.6,185.2c3,0.1,5.7,2.6,8.9,1"/>
		<path class="st0" d="M175.8,127.6c-3.1-3.4-6.9-3.5-11.1-2.7c-0.8,3.5-1,6.5,1.6,9.2c1.7,1.8,2.6,3.9,0,5.9"/>
		<path class="st0" d="M527.4,380.9c0.3,3-0.6,6,0.5,8.9"/>
		<path class="st0" d="M598.9,564.7c-0.3,3.5-5.1,5.8-8.4,4"/>
		<path class="st0" d="M546.3,355.1c-0.7,3.5-3.2,5.1-6.5,5.4c-2,0.2-3.4,1.1-5,2.1"/>
		<path class="st0" d="M131.1,710.7c0.4-1.7-0.7-2.9-2-2.4c-6.4,2.4-12.3-0.9-18.4-1.1"/>
		<path class="st0" d="M179.3,269.2c-2.6,1.8-3.5,5.8-7.4,6"/>
		<path class="st0" d="M219.5,213.1c0.3,3-0.6,6,0.5,8.9"/>
		<path class="st0" d="M360,379.4c-2.2,2.5-2.1,6.3-5,8.4"/>
		<path class="st0" d="M301.9,457.4c-0.2,2.8-0.3,5.6-0.5,8.4"/>
		<path class="st0" d="M322.8,378.9c-2.2-0.1-4.8-0.4-5.4,2.5c-0.4,2.4-0.3,4.9,2.4,6.5c2.6,1.6,5.8,1.2,9.5-1.5
			c-0.8-3.1-3.4-4.8-5.5-7"/>
		<path class="st0" d="M155.9,325.3c1.7,2.8,3.3,5.6,5,8.4"/>
		<path class="st0" d="M173.3,649.6c1,2.8,0.3,5.6,0.5,8.4"/>
		<path class="st0" d="M324.8,590.5c-1.8,1.5-1.9,1.6-1,3c3.7,5.6,5.6,11.7,6.6,18.4c0.5,3.3-2.7,6.1-0.2,9.5
			c3,4.2,2.6,9.4,2.8,14.3"/>
		<path class="st0" d="M191.7,611.3c-2.7,4.1-5.9,7.9-7.9,12.4"/>
		<path class="st0" d="M339.7,445.5c1,0,2.4-0.4,2.9,0.1c2.7,2.8,5.8,1.8,9,1.5c6.3-0.5,8.5-2.9,7.4-9.6"/>
		<path class="st0" d="M127.1,304.4c2.5,2.3,6.1,3.8,6.5,7.9"/>
		<path class="st0" d="M492.6,436.5c-0.5-1.9,0.9-2.8,2-4c1.4-1.5,2.2-3.3,1-5.4c-1.6-0.1-2.5,0.3-3.6,1.9
			c-2.9,4.3-7.1,7.6-11.4,10.4c-1.6,1-2.7,2-3.4,3.6"/>
		<path class="st0" d="M214,583.5c1.3,2.5,2,5.2,2.5,7.9"/>
		<path class="st0" d="M507.5,510c3,3.8,10.9,5.9,14.9,4"/>
		<path class="st0" d="M417.6,87.9c-3.5-3.8-8.1-2.4-12.4-2.5"/>
		<path class="st0" d="M167.3,473.3c0.1,3.8,4.1,5,5.5,7.9"/>
		<path class="st0" d="M488.6,171.8c-2.6,1.1-5.3,0.2-7.9,0.5"/>
		<path class="st0" d="M297,363c4.7,3.2,1,4.2-1.6,5.9c-0.3,1.4,1.6,2.4,1.6,4.1"/>
		<path class="st0" d="M274.1,425.6c-1.7-0.1-3.4,0.3-5-0.8c0.1-9.4-5.1-11.7-10.4-8.1"/>
		<path class="st0" d="M309.4,196.7c-2.5,0.3-5,0.7-7.4,1"/>
		<path class="st0" d="M191.7,132.6c0.8,2.2,1.6,4.3,2.5,6.4c0.5,1.2,1.5,1,2.5,0.5"/>
		<path class="st0" d="M61.6,516c2.5,5.4,6.4,9.7,9.9,14.4"/>
		<path class="st0" d="M259.7,397.3c-1.8,3.1-4.6,2.7-7.4,2"/>
		<path class="st0" d="M475.7,473.3c2.6,1.9,5,3.9,6.5,7"/>
		<path class="st0" d="M408.2,222c-2.5,0.2-5-0.5-7.4,0.5"/>
		<path class="st0" d="M312.9,198.7c-4-1.5-5.5-6.4-9.9-7.4"/>
		<path class="st0" d="M351.6,457.4c0.6,2-0.2,5.1,3.5,5c3.7-0.2,5-3.2,5.8-6c0.7-2.4,0.2-5-3.4-4.9"/>
		<path class="st0" d="M308.4,438c1,2.4,0.3,5,0.5,7.4"/>
		<path class="st0" d="M281.6,183.8c-2.5-0.2-5-0.3-7.4-0.5"/>
		<path class="st0" d="M382.9,408.2c-2.3,2-4.6,4-7,6"/>
		<path class="st0" d="M357.5,405.7c-1.6,4.2,0,7.8,2,11.4"/>
		<path class="st0" d="M519.9,363.5c-4.5,1.7-9.2,3.1-10.9,8.4"/>
		<path class="st0" d="M499.6,415.7c0.3,2.3-0.6,4.7,0.5,7"/>
		<path class="st0" d="M283.6,625.7c2.7,3.3,2.5,7.6,3.5,11.4"/>
		<path class="st0" d="M583.5,529.4c-7,0.7-13.7-0.5-20.3-2.6c-1.1,1.5-0.6,2.8-0.1,4.1"/>
		<path class="st0" d="M193.2,621.3c1.1,2.3,0.2,4.6,0.5,7"/>
		<path class="st0" d="M514.5,521.9c-2-3.1-3.4-7.2-8.4-4.5"/>
		<path class="st0" d="M446.9,5.5c1.1,2.8-2.4,4.3-2,7"/>
		<path class="st0" d="M174.8,127.6c-2.1,1.6-4.6,0.9-7,1"/>
		<path class="st0" d="M441,601.4c-0.3,2.3,0.6,4.7-0.5,7"/>
		<path class="st0" d="M159.4,135.6c1.7,1.5,2.4,3.7,5.4,4.2c2.6,0.4,3.7,3.3,2.5,6.2"/>
		<path class="st0" d="M181.2,135.1c0.3,1.2,0.9,2.3,0.9,3.5c0.1,1.3-0.9,2.4-2,2.9c-1,0.4-2.2,0.2-3-0.9c-1-1.5-1.8-3.3-4-3.5"/>
		<path class="st0" d="M443,41.2c-1.2,2.2-1.8,5.2-5.5,4.5"/>
		<path class="st0" d="M268.7,440c0.5,3.6,3.4,5.9,5,8.9"/>
		<path class="st0" d="M161.9,152.5c0.5,4.2,3,4.7,6.7,3.2c1.8,2.5,5.4,3.7,4.7,7.8"/>
		<path class="st0" d="M241.8,472.3c0.1,2.9,2.8,4.4,3.5,7"/>
		<path class="st0" d="M199.6,228.4c-2.3-1.1-4.6-0.2-7-0.5"/>
		<path class="st0" d="M400.7,225c3.3,1.6,6.5,3.6,10.4,3"/>
		<path class="st0" d="M502.6,169.8c2.2,3.1,4.3,6.3,6.5,9.4"/>
		<path class="st0" d="M280.1,366.5c0.7,2.2,1.3,4.3,2,6.5"/>
		<path class="st0" d="M503.5,413.7c0.2,2.2-0.4,4.4,0.5,6.5"/>
		<path class="st0" d="M347.6,465.3c0.4,3.4-3.1,3.2-4.5,5"/>
		<path class="st0" d="M150.5,710.7c-2-3.8-5.3-1.5-7.4-0.8c-4.3,1.3-8.5,2.1-13,1.8"/>
		<path class="st0" d="M225.9,216c-2.4,1.6-3.2,4.8-6,6"/>
		<path class="st0" d="M203.1,590c0.4,3.4-3.6,5.1-3.5,8.4"/>
		<path class="st0" d="M203.1,133.1c0.4,2.1-0.9,4.5,1,6.5"/>
		<path class="st0" d="M100.8,211.6c2.1,0.9,4.3,0.3,6.5,0.5"/>
		<path class="st0" d="M266.2,214c4.1-0.3,6.7,1.9,8.9,5"/>
		<path class="st0" d="M209.1,594.4c1,1.9,0.3,4,0.5,6"/>
		<path class="st0" d="M96.8,444c0.7-0.7,1.3-1.3,2.1-2.1c-0.8-1.4-1.7-2.7-3.5-1.4c-6.1,4.5-13,3.8-19.9,3"/>
		<path class="st0" d="M494.6,441.5c-2-0.2-4,0.5-6-0.5"/>
		<path class="st0" d="M530.4,378.9c0.2,2-0.5,4,0.5,6"/>
		<path class="st0" d="M310.9,203.1c-2,0.2-4-0.5-6,0.5"/>
		<path class="st0" d="M301.9,191.7c-1.9,1-4.4-0.1-6,2"/>
		<path class="st0" d="M519.4,390.8c0.2,2-0.5,4,0.5,6"/>
		<path class="st0" d="M527.4,393.8c2,0,4,0,6,0"/>
		<path class="st0" d="M213.5,656c0.2,2-0.5,4,0.5,6"/>
		<path class="st0" d="M368.5,174.3c2,0,4,0,6,0"/>
		<path class="st0" d="M591.9,558.7c2,1.8,4,3.6,6,5.5"/>
		<path class="st0" d="M424.1,77c0.1,1.9-0.5,3.9,0.7,5.7"/>
		<path class="st0" d="M533.3,480.7c-0.8,0.2-1.9,0.4-2.5,0.4c-3.4-0.5-4.3,1.3-4.5,4.1"/>
		<path class="st0" d="M324.3,426.6c1.8,0,3.6,0,5.5,0"/>
		<path class="st0" d="M171.3,178.3c-5.2,3.3-6.3,3-8.9-3"/>
		<path class="st0" d="M161.4,664.5c0.8,1.8,0.4,3.6,0.5,5.5"/>
		<path class="st0" d="M450.4,556.7c-2.3,1.1-1.3,3.2-1.5,5"/>
		<path class="st0" d="M371,437.5c0,1.9,0.3,3.8-1,5.5"/>
		<path class="st0" d="M293.5,423.1c-1.9,1.4-2.2,3.3-2,5.5"/>
		<path class="st0" d="M290.5,424.1c-1.8-0.8-3.6-0.4-5.5-0.5"/>
		<path class="st0" d="M462.8,626.2c-0.1,1.8,0.3,3.7-0.5,5.5"/>
		<path class="st0" d="M357.5,170.8c1.9-0.7,2.8-3.1,5.5-2.6c4,0.8,5.3,2.8,4.5,8"/>
		<path class="st0" d="M123.6,465.3c1.8,1.3,3.6,2.6,5.5,4"/>
		<path class="st0" d="M543.3,525.9c6.4,1.2,13-0.4,19.4,1.2"/>
		<path class="st0" d="M450.4,1c-2.7,3.3-6.2,5.7-9.4,8.4"/>
		<path class="st0" d="M149.5,168.4c-3.2,0.7-6.4,2.5-9.4-0.5"/>
		<path class="st0" d="M179.3,157.9c1.5,1.6,3.2,2.7,5.5,2.5"/>
		<path class="st0" d="M157.9,317.3c2.2,3-0.9,7.1,2,9.9"/>
		<path class="st0" d="M165.9,514c2.8,2.4,3.7,7.5,8.9,6.5"/>
		<path class="st0" d="M190.2,626.2c1.1,1.6,0.2,3.3,0.5,5"/>
		<path class="st0" d="M63.6,415.2c-1.6-1.1-3.3-0.2-5-0.5"/>
		<path class="st0" d="M329.7,469.3c0.1,2.1-1.1,3.6-2.5,5"/>
		<path class="st0" d="M337.7,478.2c0.4,1.9-0.8,3.4-1.5,5"/>
		<path class="st0" d="M471.8,434.5c-0.1,1.7,0.5,3.5-1,5"/>
		<path class="st0" d="M67.5,412.2c-1.6-1.1-3.3-0.2-5-0.5"/>
		<path class="st0" d="M427.1,75c0.3,1.6-0.6,3.4,0.5,5"/>
		<path class="st0" d="M398.3,90.9c0.3,2.4-2.5,3-3,5"/>
		<path class="st0" d="M298.9,380.4c-1.2,1.7-3.6,0.6-5,2"/>
		<path class="st0" d="M215,222c-1.2-1.7-3-0.7-4.5-1"/>
		<path class="st0" d="M174.8,507c1.3,1,2.7,1.9,4.5,1.5"/>
		<path class="st0" d="M285,377.9c-0.8,3,2.4,5,2,7.9"/>
		<path class="st0" d="M535.3,366c-0.2-1.2,0.7-2.7-1.5-3.5c-1.5,1.3-1.6,3.4-1.5,5.5"/>
		<path class="st0" d="M535.3,564.7c0,1.7-0.1,3.3,2,4"/>
		<path class="st0" d="M500.1,181.3c-1.5,0-3,0-4.5,0"/>
		<path class="st0" d="M215,567.1c-1.6,6-4.9,11.1-7.9,16.4c-1.2,2.1-3,0.5-4.5,1"/>
		<path class="st0" d="M501.1,426.1c1.5,0.2,3,0.3,4.5,0.5"/>
		<path class="st0" d="M74.5,529.9c-2.9,0.6-5.8,2.5-8.9,1"/>
		<path class="st0" d="M318.8,588.5c0.6,2.1,2.3,2,4,2"/>
		<path class="st0" d="M19.9,151.5c-1.5,0-3,0-4.5,0"/>
		<path class="st0" d="M270.1,406.7c-1.5-0.2-3-0.3-4.5-0.5"/>
		<path class="st0" d="M498.6,572.6c1.6,3.7,5.8,0.6,7.9,3"/>
		<path class="st0" d="M406.2,76c0.3,1.3-0.6,2.8,0.5,4"/>
		<path class="st0" d="M175.3,129.1c0,2,2.2,2,3,2.3c2.8,0.9,2,2.4,1.4,4.2"/>
		<path class="st0" d="M216.5,650.1c0.3,1.3-0.6,2.8,0.5,4"/>
		<path class="st0" d="M280.1,595.9c1.7-0.6,2.6,1,4,1.5"/>
		<path class="st0" d="M344.6,354.1c-2.6,1.9-1.6,5.1-3,7.4"/>
		<path class="st0" d="M271.1,415.7c-1.3,0.3-2.8-0.6-4,0.5"/>
		<path class="st0" d="M306.4,438.5c-0.2,1.3-0.3,2.6-0.5,4"/>
		<path class="st0" d="M481.2,622.3c-1.1,1.2-0.2,2.7-0.5,4"/>
		<path class="st0" d="M388.3,398.8c0.4,1.3,0.7,2.6,2,3.5"/>
		<path class="st0" d="M35.7,155.4c-2.1-3-5.2-1.9-7.9-2"/>
		<path class="st0" d="M350.1,399.8c0.8-0.4,1.2-2.4,2.5-0.5c0.8,1.1,2,0.3,3,0.5"/>
		<path class="st0" d="M115.2,186.2c-1.3,0.5-2.6,1-4,1.5"/>
		<path class="st0" d="M205.1,600.4c1.1,1.2,0.2,2.7,0.5,4"/>
		<path class="st0" d="M323.8,367.5c-1.3,0.5-2.3,1.8-4,1.5"/>
		<path class="st0" d="M553.7,168.9c1.2,2.3,0.5,6,4.5,6.5"/>
		<path class="st0" d="M219,619.3c-0.8,1.2-1.7,2.4-1.5,4"/>
		<path class="st0" d="M187.2,630.2c1.1,1.2,0.2,2.7,0.5,4"/>
		<path class="st0" d="M518.4,122.7c-1.3-0.4-2.2-2.5-4-1"/>
		<path class="st0" d="M319.3,435c0.8,1.6,1.9,2.7,3.5,3.5"/>
		<path class="st0" d="M447.9,553.2c-1.5,0.8-0.9,2.3-1,3.5"/>
		<path class="st0" d="M432,57.6c1.5,0.8,0.9,2.3,1,3.5"/>
		<path class="st0" d="M180.8,692.8c0.2,1.2,0.3,2.3,0.5,3.5"/>
		<path class="st0" d="M452.4,546.8c1.2,0,2.3,0,3.5,0"/>
		<path class="st0" d="M509.5,541.8c1.2,2.7-1.9,5.2-0.5,7.9"/>
		<path class="st0" d="M336.2,368c1.2,0,2.3,0,3.5,0"/>
		<path class="st0" d="M207.6,667.9c-0.2,2.6,3.1,4.1,2,7"/>
		<path class="st0" d="M192.7,684.8c0.2,1.2,0.3,2.3,0.5,3.5"/>
		<path class="st0" d="M167.8,570.6c3.2-0.2,4.3,3.2,7,4"/>
		<path class="st0" d="M298.9,376.9c0.3,2.3,0.7,4.6,1,7"/>
		<path class="st0" d="M127.6,694.3c0.2,1.2,0.3,2.3,0.5,3.5"/>
		<path class="st0" d="M125.1,309.4c1.5,0.5,2.1,1.5,2,3"/>
		<path class="st0" d="M356.6,437c0,1.2,0,2.3,0,3.5"/>
		<path class="st0" d="M213,570.6c-1.2,0-2.3,0-3.5,0"/>
		<path class="st0" d="M348.1,373.5c-1.2,0.2-2.3,0.3-3.5,0.5"/>
		<path class="st0" d="M121.7,300.5c1.2,0.7,2.3,1.3,3.5,2"/>
		<path class="st0" d="M288,428.6c1.8,0.1,3.6-0.5,4.5,2c1.7,4.4,5.9,6.1,9.9,8"/>
		<path class="st0" d="M117.7,213.5c-1.2,0.2-2.3,0.3-3.5,0.5"/>
		<path class="st0" d="M134.1,385.4c0.5,1.4-0.6,2.3-1,3.5"/>
		<path class="st0" d="M110.7,467.3c1.2,1,2.3,2,3.5,3"/>
		<path class="st0" d="M186.7,687.8c0,1.2-0.2,2.4,1.5,3c1.5,0.5,1,1.8,0.5,2.9"/>
		<path class="st0" d="M66.5,514c-1.8-0.5-3.4,0.4-4.9,1.1c-1.6,0.7-2.5,0.7-3-1.1"/>
		<path class="st0" d="M254.3,418.2c-1.4,1-3.5,0.8-4.5,2.5"/>
		<path class="st0" d="M146,159.4c3.1-0.6,1.7,1.7,2,3"/>
		<path class="st0" d="M118.2,629.2c-1.3,0.9-2.7,0.3-3.4-0.6c-1.2-1.6-2.3-0.8-3.6-0.4"/>
	</g>
</g>
</svg>
