<?xml version="1.0" encoding="utf-8"?>
<!-- Generator: Adobe Illustrator 28.5.0, SVG Export Plug-In . SVG Version: 9.03 Build 54727)  -->
<svg version="1.1" id="Layer_1" xmlns="http://www.w3.org/2000/svg" xmlns:xlink="http://www.w3.org/1999/xlink" x="0px" y="0px"
	 viewBox="0 0 231 159.8" style="enable-background:new 0 0 231 159.8;" xml:space="preserve">
<style type="text/css">
	.st0{fill:#FFFFFF;}
</style>
<g>
	<g>
		<path class="st0" d="M50.2,22c-1.3,0-2.7-1.6-2.7-2.4c0-1.3,2-3.4,3.7-4.2c-0.3,0.4-1.8,2.7-1.5,2.7c3.9,0,12-5.8,12-10.7
			c0-2.4-2.5-3.6-4.9-3.6c-15.2,0-47,27.6-48,44.7c-0.2,3.3,1.1,5.7,6.2,5.3C27,52.8,47.7,35.4,56.8,27.3c-11,1.1-25.6,5.5-25.6,8.2
			c0,0.6-2-1.4-2-3.3c0-4.9,21.8-6.8,26.4-6.8c6.5,0,11.8,1.8,12.1,2.6c-2.6-0.6-6.8-1-7.9-0.8c3,0.6,3.9,3.9,3.1,3.1
			c-0.8-0.6-2.3,0-4.2,1.4C48.1,39.3,39,54.2,35.9,61.8c-1.1,2.7-1.6,5.2-1.6,6c0,0.4,0.2,0.4,0.2,0.5s-0.1,0.2-0.3,0.2
			c-0.6,0-1.2-0.7-1.2-1.8c0-8.6,6.6-20.9,11.7-27.1c-8.7,7-22.6,17.2-32,17.8c-5.6,0.3-9-2.9-9-8C3.5,28.7,37.7,2.8,56.9,2.8
			c2.7,0,7.2,1.3,7.2,5.3C64.2,14.5,56.2,22,50.2,22z"/>
		<path class="st0" d="M67.8,27.7c0.3-0.2,0.6-0.3,0.8-0.3c1.3,0,3.4,2.2,3.4,3.6c0,0.2-0.2-0.1-0.6-0.1c-0.8-0.1-2.8,2.1-4.4,4.3
			c-1.5,2-3.4,4.6-4.6,6.7c2.9-3.8,8.5-8.5,13.3-12c2.2-1.6,3.8-2.5,5-2.6c0.6-0.1,2.9,2.3,2.5,2.8c-1.2,1.3-5.8,5.3-7.7,9.7
			c2.7-0.2,6.5-2.7,10-5.8c0.1-0.1,0.4-0.1,0.4,0c-1,1.3-7.7,7.6-11.5,7.6c-1,0-2.7-1.9-2.7-2.6c0-1.6,1.8-4.8,3.2-6.5
			c-5.1,3-7.7,5.2-11.5,9.4c-2.8,3.1-6.2,8-4.9,8.5c-1.6,0.4-2.9-1.3-3.3-2.9C55,47,55.3,45.9,56,44.6c1.4-3.2,3.9-7,6.1-10.2
			C64,31.6,66.4,28.8,67.8,27.7z"/>
		<path class="st0" d="M95.2,38.6c-1.7,1.7-12.5,11-14.8,11c-0.1,0-0.4-0.1-0.5-0.2c-1-0.5-2.4-2.6-2.4-3.7c0-6.1,12.7-18.5,23-18.5
			c2.1,0,4.9,0.9,4.9,3.5c0,0.9-0.5,1.9-1.1,2.6c-0.1,0.1-0.2,0-0.2-0.1c0.3-0.5,0.6-1.2,0.6-2c0-1.7-1.1-2.5-2.7-2.4
			c-3.2,0.2-7.3,2.5-10.9,5.6c-5.3,4.5-9.5,11.5-9,11.8c0.1,0.1,0.2,0.1,0.4,0c1.8-0.6,9.6-6.2,12.5-8.7c1-0.9,4.6-4.4,6-5.2
			c1.1-0.6,3,2.5,2.8,3.2c-0.3-0.6-5.3,5.5-7,9.1c-0.3,0.8-0.6,1.4-0.6,1.9c3.5-1,11.5-8.6,14.9-11.8c0.3-0.3,0.6,0.2,0.4,0.3
			c-4.8,5.3-13.9,14.6-17.2,14.6c-0.3,0-0.6-0.1-0.9-0.3c-0.8-0.4-1.8-1.6-1.8-2.6c0-0.6,0.2-1.2,0.4-2.1
			C92.7,42.6,94.2,40,95.2,38.6z"/>
		<path class="st0" d="M110.7,47.2c5.1-0.6,14.5-8.1,19.9-12.5c0.2-0.1,0.6,0.1,0.4,0.3c-4.8,4.5-15.5,14.6-22.4,14.6
			c-1.8,0-3.8-1.7-4.1-3.4c-0.1-0.4-0.1-1,0.1-1.7c0.4-2.3,2.4-6.2,6.2-9.8c4.6-4.5,10.2-7.4,14.1-7.4c1.3,0,3.2,1.9,3.2,2.7
			c0,2.1-2.7,4.2-4.6,5.6c-0.1,0.1-0.4,0-0.3-0.2c0.9-0.9,3.2-5.3,2.7-5.7c-6,0.1-16.9,12.7-16.9,16.6
			C109.1,47.2,110.2,47.3,110.7,47.2z"/>
		<path class="st0" d="M128,46.1c-0.1,0.7,0.4,1.1,1.7,1.1c4.1,0,14.2-7.7,19.9-12.4c0.2-0.1,0.6,0.2,0.4,0.3
			c-4.2,3.9-15.2,14.5-22.6,14.5c-1.7,0-3.9-2-3.9-3.5c0-1.3,0.3-2.4,0.8-3.7c1.3-3.2,4.2-6.7,7.7-9.6c4.6-3.8,9.6-5.6,12-5.6
			c0.8,0,3.4,1.3,3.4,2.8c0,3.4-10.7,11.5-16.9,11.6C129.2,42.9,128.2,44.7,128,46.1z M130.9,40.6c4.8-0.6,14.1-9.6,14.4-11.7
			C139.2,30.9,132.8,37.7,130.9,40.6z"/>
		<path class="st0" d="M183.3,67c-0.1,0-0.1-0.1-0.1-0.2c-0.1-3.1,7.2-19.8,17.2-33.5c-6.7,6.6-23.2,21.2-34.6,21.1
			c-3.5,0-7.6-1.9-7.7-6.1c-0.2-8.3,16.7-18.4,23.7-20.5c-2.9-0.1-8.4-2.1-8.5-6.1c-0.3-9.6,19.2-19.5,30.5-19.5
			c2.4,0,5.9,0.5,6.5,4.1c0.9,6.1-9.1,13.5-14.9,13.5c-0.7,0-2.5-1.1-2.6-3c0-1.2,1.9-2.3,2.6-2.6c-0.2,0.3-0.6,1.1-0.6,1.4
			c0,0.2,0.1,0.4,0.4,0.4c2.2,0,12.7-5.5,13.3-9.8c0.3-2.1-2.1-2.8-4.1-2.8c-7.8,0-26.5,11.1-26.4,17.7c0.1,2.8,5.2,4.3,9.3,4.3
			c1,0,2.6-0.3,2.8-0.3c0.4,0-0.6,2.1-1.1,2.1c-9.2,1.2-24.2,12.6-25.5,19.1c-0.8,3.2,1.8,4.2,4.3,4.1c12.1-0.8,28.4-14.8,35.4-21.7
			c-1.9,0.4-3.8,0.9-5.8,1.5c0,0-0.2,0.2-0.1,0.3c-0.6,0.2-1.8,0.5-2.1,0.5c-0.5,0-2.9-0.6-2.9-1.4c-0.1-0.1,0.2-0.7,0.3-1
			c1.2-1.6,8-3.2,14.1-3.7c3.1-3.3,5.6-5.7,7.1-5.7c1.3,0,2.9,1,3.6,2.1c-0.8,0.1-2.6,1.4-4.8,3.5c9.6,0.2,14.8,2.1,14.8,2.3
			c0,0.1-0.1-0.1-5.9-0.1c-5.4,0-7.8,0.1-11.8,0.6C188.5,52.2,184.3,67,183.3,67z"/>
	</g>
	<g>
		<path class="st0" d="M24.4,87.5c0,1.5,0.7,2.7,1.8,3.3c-2.4,0-4.6-2.3-4.6-5c0-8.4,16.9-16.3,32.1-16.4c15-0.1,24.5,6.2,24.2,16.6
			c-0.4,18.9-36,40.4-64.7,40.4c-3.3,0-9.8-0.8-9.8-5.8c0-6.2,11.7-14.8,23.6-19c0,0.1-0.1,0.1-0.3,0.3c-9,4.2-20.7,12.4-20.7,18.2
			c0,2.4,3.8,2.8,6.1,2.8c24.8,0,62.6-22,62.6-40.3c0-7.1-8.6-11.1-16.8-11.2C41.3,71,24.4,82,24.4,87.5z M34.6,110.2
			c0.9,0,1.9-0.2,3.2-0.8c-0.2,0.8-2.7,2.4-3.8,2.4c-0.7,0-1.6-0.6-1.6-1.7c0-3.9,10.5-19.7,18.2-28.3c1.2-1.4,5-5.5,7.2-5.5
			c0.4,0,0.9,0.1,1.3,0.3c2.5,0.9,3.8,3.4,2.9,2.7c-0.9-0.5-2.1,0.1-3.5,1.2c-0.9,0.8-1.9,1.8-4.2,4.1
			C46.4,93.2,34.6,107.9,34.6,110.2z"/>
		<path class="st0" d="M86.8,104.3c-1.7,1.7-12.5,11-14.8,11c-0.1,0-0.4-0.1-0.5-0.2c-1-0.5-2.4-2.6-2.4-3.7C69,105.4,81.7,93,92,93
			c2.1,0,4.9,0.9,4.9,3.5c0,0.9-0.5,1.9-1.1,2.6c-0.1,0.1-0.2,0-0.2-0.1c0.3-0.5,0.6-1.2,0.6-2c0-1.7-1.1-2.5-2.7-2.4
			c-3.2,0.2-7.3,2.5-10.9,5.6c-5.3,4.5-9.5,11.5-9,11.8c0.1,0.1,0.2,0.1,0.4,0c1.8-0.6,9.6-6.2,12.5-8.7c1-0.9,4.6-4.4,6-5.2
			c1.1-0.6,3,2.5,2.8,3.2c-0.3-0.6-5.3,5.5-7,9.1c-0.3,0.8-0.6,1.4-0.6,1.9c3.5-1,11.5-8.6,14.9-11.8c0.3-0.3,0.6,0.2,0.4,0.3
			c-4.8,5.3-13.9,14.6-17.2,14.6c-0.3,0-0.6-0.1-0.9-0.3c-0.8-0.4-1.8-1.6-1.8-2.6c0-0.6,0.2-1.2,0.4-2.1
			C84.3,108.2,85.8,105.7,86.8,104.3z"/>
		<path class="st0" d="M114.2,112.3c3.5-0.9,11.5-8.6,15-11.9c0.3-0.3,0.6,0.2,0.4,0.3c-4.8,5.3-13.9,14.5-17.2,14.5
			c-0.6,0-1.2-0.5-1.7-1.2c-0.6-0.7-1-1.6-1-2.2c0-3.2,6.5-12.5,9.3-15.1c-4.6,2.1-12.7,8.8-16.9,13.2c-0.7,0.7-1.4,1.6-2,2.3
			c-1.5,1.8-1.9,3.3-1.1,3.7c-1.7,0.4-3-1.4-3.4-3c-0.1-0.4,0.2-1.9,1.6-4.4c1.3-2.6,3.4-5.9,5.3-8.5c2-2.8,4.4-5.8,5.9-6.9
			c0.2-0.2,0.6-0.3,0.7-0.3c1.4,0,3.5,2.2,3.5,3.6c0,0.2-0.2-0.1-0.7-0.1c-0.7-0.1-2.8,2.3-4.4,4.4c-2.6,3.4-5.5,7.6-6.3,9.1
			c0.6-0.9,1.7-2,2.8-3.1c6.2-6.1,16-13.6,17.9-13.6c1.3,0,3.1,3,2.4,3.6C122.9,98,114.3,109.7,114.2,112.3z"/>
		<path class="st0" d="M123.6,115.3c-0.9-0.3-2.3-1.7-2.3-2.7c0-3.2,8.1-15.3,11.6-18.2c0.3-0.3,0.6-0.3,0.8-0.3
			c1.3,0,3.5,2.2,3.5,3.6c0,0.2-0.3-0.1-0.7-0.1c-2.3-0.2-9.9,12.5-10.6,14.7c3.4-0.9,11.5-8.6,14.9-11.9c0.4-0.3,0.7,0.2,0.5,0.3
			c-4.8,5.2-13.7,14.3-17.1,14.6C124,115.3,123.8,115.3,123.6,115.3z M142.1,87.3c0.5,0.6,0.8,1.4,0.6,1.4c-0.1,0-0.6-0.2-1.2,0.1
			c-0.9,0.4-3.5,2.7-4.2,3.6c-0.8,1-1.9-0.2-2-1.2c-0.1-1.6,2.1-5.2,3.5-5.7C140.2,85.4,141.4,86.5,142.1,87.3z"/>
		<path class="st0" d="M138.7,111.8c-0.1,0.7,0.4,1.1,1.7,1.1c4.1,0,14.2-7.7,19.9-12.4c0.2-0.1,0.6,0.2,0.4,0.3
			c-4.2,3.9-15.2,14.5-22.6,14.5c-1.7,0-3.9-2-3.9-3.5c0-1.3,0.3-2.4,0.8-3.7c1.3-3.2,4.2-6.7,7.7-9.6c4.6-3.8,9.6-5.6,12-5.6
			c0.8,0,3.4,1.3,3.4,2.8c0,3.4-10.7,11.5-16.9,11.6C140,108.6,138.9,110.4,138.7,111.8z M141.7,106.3c4.8-0.6,14.1-9.6,14.4-11.7
			C149.9,96.6,143.5,103.4,141.7,106.3z"/>
		<path class="st0" d="M173.1,80.2c1.7-2.2,3.2-3.9,4.6-5.1c0.8-0.7,1.6-1.1,2.1-1.1c3.1-0.2,5.3,3.1,4.3,2.4
			c-1.9-0.9-5.6,4.3-8,7.3c-2.4,3.1-4.7,6.3-7.5,10.4c-4.8,7.3-9,14.4-10.3,18c2.4,0.3,11.6-8.8,14.9-11.8c0.3-0.3,0.6,0.2,0.4,0.3
			c-2.7,3.1-12.4,13.2-15.7,14.5c-0.7,0.3-1.3,0.1-1.8-0.2c-0.4-0.2-1.7-1.4-2-2.2c-0.1-0.1-0.2-0.2-0.2-0.8c0-1.7,2.6-7.1,9.3-17.7
			C166.7,88.8,170.2,84,173.1,80.2z"/>
	</g>
	<g>
		<g>
			<path class="st0" d="M30.1,145.1c0,0.6,1.2,0.1,1.5-0.1c-0.2,0.3-1,0.7-1.6,0.9c-0.7,0.2-1.5-0.1-1.5-0.9c0-0.2,0.1-0.5,0.3-0.9
				c1.3-2.5,5.9-5.2,8.9-5.2c1.5,0,2.3,0.7,2.3,2.1c0,4.5-9.7,11.4-12.3,13c1.3-0.3,2.8-0.4,3.9-0.4c0.3,0,0.6,0,0.8,0
				c3,0.1,4.6,1.3,4.7,1.8c-0.1,0-1-1.1-3.8-1.1c-6.5,0-11.1,3-11.6,3c-0.5,0-0.9-1.6-0.5-1.6c3.5,0,18-12.1,18-15.1
				c0-1-0.5-1.1-1.2-1.1C35.3,139.6,30.1,143.8,30.1,145.1z"/>
			<path class="st0" d="M48.8,138.8c1.5-0.2,2,0.4,2.1,0.9c0.1,0.7-0.3,0.8-0.3,0.7c0-0.6-0.7-0.7-1.3-0.7c-2.1,0.3-3.2,2.4-3,4.3
				c0,0.5,0.2,1,0.3,1.3c4.4-1.8,5.5-4.6,5.4-5.4c0-0.1,0.1-0.2,0.1,0c0.3,2.9-2.8,4.9-5.2,6.5c0.3,1.2,0.7,2.4,0.8,3.7
				c0,0.2,0,0.5,0,0.7c0,3-2.3,5.6-6,6.2c-0.3,0.1-0.7,0.1-1,0.1c-2,0-3.5-1-3.7-2.8c-0.4-4,4.9-6.9,8-8.2c-0.1-0.4-0.3-1.2-0.3-1.8
				C44.4,141.6,46.2,139.1,48.8,138.8z M38,154.6c0.1,1.4,1,1.8,2.2,1.8c0.2,0,0.4,0,0.7,0c2-0.2,5.3-2.9,5-5.8
				c-0.1-0.9-0.3-2-0.7-3.3C43.8,148,37.7,151.7,38,154.6z"/>
			<path class="st0" d="M56.5,155.2c-0.4,0-0.8-0.5-0.8-0.9c0-0.6,0.7-1.5,1.3-1.6c0.4,0,1.2,0.4,1.4,0.7
				C57.8,153.6,56.7,155.2,56.5,155.2z"/>
			<path class="st0" d="M77,139.3c0.5,0,1,0.5,1.2,1c1.5,0.2,2.2,1.5,2.2,2.9c0,5.1-7.2,13.5-12.5,13.5c-1.9,0-3.2-1.1-3.2-3.1
				C64.6,146.9,73.4,139.3,77,139.3z M65.8,154.3c0,1.1,0.6,1.7,1.7,1.7c3.5,0,11.8-9.1,11.8-13.8c0-1.1-0.7-1.4-1.4-1.4
				C73.3,140.9,65.8,148.8,65.8,154.3z"/>
			<path class="st0" d="M89.8,145.8c-2.4,2.4-5.2,4.1-7.5,4.1c-1.1,0-2-0.6-2.1-1.8c-0.2-3.9,6.9-9,11-9.3c0.7,0,2.4,0,2.4,1
				c0,0.5-0.4,0.9-0.7,1.1c0.2-0.3,0.3-0.6,0.3-0.8c0-0.4-0.6-0.5-1-0.5c-3.8,0.2-10.8,5.9-10.8,8.8c0,0.8,0.7,1,1.6,0.8
				c3.9-0.5,8.6-6.7,8.5-8.1c0-0.7,1.4,0.1,1.4,0.5c-0.1,2.7-5.3,14.4-13.5,15.5c-0.9,0.1-2.7-0.2-2.9-1.5c-0.4-2.2,3.1-5.1,4.6-5.8
				c0.1,0,0.1,0,0,0.1c-1.1,0.6-4.2,3.5-3.9,5.2c0.2,0.9,1.5,1,2.6,0.6C83.8,154.6,87.6,150.3,89.8,145.8z"/>
			<path class="st0" d="M97.8,155.2c-0.4,0-0.8-0.5-0.8-0.9c0-0.6,0.7-1.5,1.3-1.6c0.4,0,1.2,0.4,1.4,0.7
				C99,153.6,98,155.2,97.8,155.2z"/>
			<path class="st0" d="M111.5,145.1c0,0.6,1.2,0.1,1.5-0.1c-0.2,0.3-1,0.7-1.6,0.9c-0.7,0.2-1.5-0.1-1.5-0.9c0-0.2,0.1-0.5,0.3-0.9
				c1.3-2.5,5.9-5.2,8.9-5.2c1.5,0,2.3,0.7,2.3,2.1c0,4.5-9.7,11.4-12.3,13c1.3-0.3,2.8-0.4,3.9-0.4c0.3,0,0.6,0,0.8,0
				c3,0.1,4.6,1.3,4.7,1.8c-0.1,0-1-1.1-3.8-1.1c-6.5,0-11.1,3-11.6,3c-0.5,0-0.9-1.6-0.5-1.6c3.5,0,18-12.1,18-15.1
				c0-1-0.5-1.1-1.2-1.1C116.7,139.6,111.5,143.8,111.5,145.1z"/>
			<path class="st0" d="M131.4,139.3c0.5,0,1,0.5,1.2,1c1.5,0.2,2.2,1.5,2.2,2.9c0,5.1-7.2,13.5-12.5,13.5c-1.9,0-3.2-1.1-3.2-3.1
				C119,146.9,127.8,139.3,131.4,139.3z M120.2,154.3c0,1.1,0.6,1.7,1.7,1.7c3.5,0,11.8-9.1,11.8-13.8c0-1.1-0.7-1.4-1.4-1.4
				C127.7,140.9,120.2,148.8,120.2,154.3z"/>
			<path class="st0" d="M137.6,145.1c0,0.6,1.2,0.1,1.5-0.1c-0.2,0.3-1,0.7-1.6,0.9c-0.7,0.2-1.5-0.1-1.5-0.9c0-0.2,0.1-0.5,0.3-0.9
				c1.3-2.5,5.9-5.2,8.9-5.2c1.5,0,2.3,0.7,2.3,2.1c0,4.5-9.7,11.4-12.3,13c1.3-0.3,2.8-0.4,3.9-0.4c0.3,0,0.6,0,0.8,0
				c3,0.1,4.6,1.3,4.7,1.8c-0.1,0-1-1.1-3.8-1.1c-6.5,0-11.1,3-11.6,3c-0.5,0-0.9-1.6-0.5-1.6c3.5,0,18-12.1,18-15.1
				c0-1-0.5-1.1-1.2-1.1C142.9,139.6,137.6,143.8,137.6,145.1z"/>
			<path class="st0" d="M154.5,139.4c0.2,0.2,0.8,0.8,2.8,0.8c2.5,0,3.9-0.9,3.8-1.4c0.5,0.1,1.2,0.8,1.2,1.3c0,0.5-1.8,1.2-3.4,1.2
				c-1.7,0-3.1-0.4-3.9-1c-0.7,1.2-1.9,3.1-2.8,4.4c0.6-0.2,1.5-0.4,2.2-0.4c2.2,0,3.9,1.3,3.9,3.3c0,4.8-7,9.3-12.1,9.3
				c-1.4,0-2.8-0.7-2.8-1.9c0-2.7,5.9-6.1,8.2-6.6c0.2,0,0.5-0.1,0.5,0c0,0-0.2,0-0.2,0.1c-1.5,0.4-7.3,3.9-7.3,6.3
				c0,0.6,0.7,0.7,1.2,0.7c5.1,0,11.3-5.1,11.3-8.6c0-1.1-0.8-2.2-2.3-2.2c-2.2,0.1-4,1.6-4.4,1.7c-0.8,0.1-1.5-0.9-1.2-0.9
				c0.7,0,5.1-5.5,5.1-6.1C154.1,139.3,154.3,139.3,154.5,139.4z"/>
		</g>
	</g>
</g>
</svg>
