<?xml version="1.0" encoding="utf-8"?>
<!-- Generator: Adobe Illustrator 28.5.0, SVG Export Plug-In . SVG Version: 9.03 Build 54727)  -->
<svg version="1.1" id="Layer_1" xmlns="http://www.w3.org/2000/svg" xmlns:xlink="http://www.w3.org/1999/xlink" x="0px" y="0px"
	 viewBox="0 0 108.2 173.2" style="enable-background:new 0 0 108.2 173.2;" xml:space="preserve">
<style type="text/css">
	.st0{fill:none;stroke:#FFFFFF;stroke-linecap:round;stroke-linejoin:round;stroke-miterlimit:10;}
</style>
<g id="vx24rP_00000124151123519680339890000004289419248917793980_">
	<g>
		<path class="st0" d="M91.9,112.4c-2.6,1.2-5.3,0.5-7.9,0c-3.1-0.6-6.1-2-9-3.3c-7-3.2-13.9-2.8-20.6,0.9c-2.8,1.5-4.9,3.7-7.2,5.9
			c-1.4,1.4-1.3,2.8-1.6,4.2c-1.1,5.7-3.9,10.4-7.8,14.7c-4,4.5-8.7,8.2-13.1,12.3c-6.8,6.2-12,13.5-15.3,22.1
			c-0.5,1.2-0.7,2.5-1.3,3.6"/>
		<path class="st0" d="M45.7,111.1c-0.9-0.3-1-1.2-1.2-1.9c-3.1-8.8-9.4-14.4-17.7-17.9c-4.2-1.8-8.8-2.2-13.4-1.9
			c-2.1,0.1-4.2,0.2-6.3,0.2c-2,0.1-3.7-0.8-5.4-1.7c-0.6,1.9,0.1,3.2,2,4.4c0.6,0.3,1.1,0.7,1.7,0.8c4.4,0.9,7.2,4.1,10.3,7
			c3.5,3.2,6.8,6.7,11.2,8.7c3.1,1.4,6.4,1.8,9.7,2.4c2.9,0.6,5.8,0.8,7.9,3.2c0.1,0.1,0.4,0.1,0.6,0.1"/>
		<path class="st0" d="M45.9,105.3c-0.6-5.2-3.3-9.4-6.2-13.5c-3.1-4.4-4.9-9.2-4.5-14.7c0.5-6.3-4.1-9.1-8.5-10.9
			c-1.2-0.5-2.5-1.1-3.9-1.1"/>
		<path class="st0" d="M89.9,113.3c-1.6,2.4-4.3,3-6.7,3.8c-8.5,3-17.3,4.2-26.2,3.8c-3.8-0.2-7.4-1-11-2.4"/>
		<path class="st0" d="M58.2,17.1c6.6-3.8,14.1-4.4,21.4-5.6c2-0.3,4-0.7,5.9-1.3c1.4-0.4,1.6-1.3,0.8-2.6c-1.3-2.3-2.6-3-5.2-2.5
			c-2.2,0.5-4.4,1-6.7,1.5c-1.4,0.3-2.6-0.1-4-0.5c-2.1-0.7-4-1.7-6.1-2.5c-2.2-0.8-4.4,0.8-4.9,3.6c-0.4,2.5-1.3,4.9-1.4,7.4
			c0,0.2-0.5,0.5-0.7,0.7"/>
		<path class="st0" d="M70.7,46.6c-1.8-1.6-3.3-3.5-5.4-4.7c-8.4-4.9-10-10.5-8.8-19.7c0.2-1.1,0.5-2.2,1.1-3.1
			c0.9-1.4,0.6-2.7-0.4-3.8c-3.3-3.7-7.3-5.8-12.4-5.3c-0.8,0.1-1.5,0.3-2.2,0.9c3.1,1.7,3.6,4.8,3.8,7.8c0.4,5.8,2.6,10.8,6.7,14.8
			c3.1,2.9,3.5,6.1,2.6,9.8c-0.9,3.7,0.5,6.9,3,9.1c1.7,1.5,4.5,2,7.1,2c6.9,0.1,13.5-1.1,19.5-4.8c0.5-0.3,1.2-0.3,1.2-1.2
			c0-0.1,0.7-0.2,1.1-0.3"/>
		<path class="st0" d="M55.7,82.3c-1.9-7.1-7.4-11-13.3-14.6c-3.8-2.3-7.8-3.6-12.1-4c-2.1-0.2-4.3-0.3-6.2,1.3"/>
		<path class="st0" d="M74.4,26.6c-1.1-2-0.7-4-0.3-6.1c0.6-3.2-0.9-5.2-3.5-5.1c-2.3,0.1-3.3,1.7-3.8,3.5c-0.7,2.4-1.5,4.8-1,7.5
			c-1,0.5-1.6-0.6-2.4-0.8c-0.5-0.1-0.9-0.8-1.5-0.3c-0.5,0.4-0.3,1.1-0.3,1.5c0.1,1,0.5,1.9,0.7,2.9c0.4,1.7,0.6,3.4,0,5.1
			c-0.5,1.4-0.5,2.9,0.1,4.3"/>
		<path class="st0" d="M70,63.3c-0.4,4.8-2,9.3-4.3,13.5c-0.8,1.5-1.8,2.8-3.3,3.8c-1,0.8-1.9,1.7-2.3,3.2c-0.3,1.3-1.2,2.4-1.8,3.6
			c-3.5,7.3-7.8,14.3-11,21.8"/>
		<path class="st0" d="M72.4,63.1c0.3-0.1,0.6-0.2,0.9-0.2c4.3,0.2,8.1-1,11.8-3.5c3.8-2.6,7.8-5,11.8-7.3c2.9-1.7,5.4-3.9,7.1-7
			c1.2-2.3,0.9-4.2-0.4-6.1c-0.8-1.2-1.4-2.5-2.2-3.7c-1-1.6-0.1-3.2,1-4.5"/>
		<path class="st0" d="M81.5,18.7c0-1,0.7-1.4,1.5-1.9c2.7-1.5,5.6-2.6,7.8-5c0.3-0.3,0.4-0.7,0.7-1c1.1-0.4,1.6,0.5,2.2,1.1
			c2.7,2.7,6.2,4.2,9.6,5.8c2.6,1.2,4.2,3.7,3.4,6.1c-0.7,2.3-1.8,4.6-4,6"/>
		<path class="st0" d="M63.8,61.2c-1.6,1.7-3.2,3.3-4.3,5.4c-1.4,2.5-1.5,5.2-1.2,8c0.2,2.2,0.7,4.6-0.9,6.3
			c-1.7,1.9-1.9,4.2-2.5,6.5c-0.7,2.5-1.8,4.8-3.1,7c-2,3.5-4,6.9-4.6,11c0,0.2-0.4,0.4-0.7,0.5"/>
		<path class="st0" d="M94.4,31c0.8,0.9,2.2,1.5,1.9,3.1c-0.3,1.5-1,2.9-2,4.2c-1.7,2.1-3.9,3.4-6.4,4.4C85,44,81.7,45,78.6,46.2
			c-2.1,0.8-4.7,0.5-7.1,0.8c-4,0.5-8.1,1.1-12.1,1.7c-1.1,0.2-0.8,1.5-1.6,2"/>
		<path class="st0" d="M72.3,63.7c2.5,2.7,3.4,5.9,3.4,9.5c0,0.6,0.2,1.3,0.4,1.9c0.9,3,3.3,4.1,6.3,3c0.5-0.2,1.1-0.2,1.6-0.3"/>
		<path class="st0" d="M64.9,61.9c0.8,5.5-0.1,10.8-2.2,16c-0.3,0.7-0.5,1.4-0.4,2.2"/>
		<path class="st0" d="M90.1,28.9c1.5-2.5,1.7-5.2,1-8c-0.5-1.8-1.8-3-3.5-3.8c-2-0.9-3.1,0.7-4.4,1.7"/>
		<path class="st0" d="M65.7,27c0.5,1.7,2.2,2.3,3.5,3c2.8,1.7,5.7,3.4,9.3,3.5c0,1.7,0.4,3.2,0.2,4.9c-0.2,1.9-1.3,2.8-2.7,3.6
			c-2.4,1.4-5.1,1.3-7.7,1"/>
		<path class="st0" d="M78.7,63.3c1.1,2.5,1.4,5.2,1.3,7.9c0,2.6,0.2,5,2.7,6.6"/>
		<path class="st0" d="M101.9,36.7c-1.6,1.4-3.9,2.3-4.2,4.6c-0.5,3.2-2.6,4.5-5.3,5.1c-2.1,0.5-3.2,1.7-3.8,3.6"/>
		<path class="st0" d="M91.6,31.1c-0.8-0.4-1.6-0.5-2.6-0.5c-2.9,0.1-5.8-0.1-8.6-1c-0.8-0.3-1.3-0.7-1.7-1.3"/>
		<path class="st0" d="M102.3,36c2.1-2.9,1.3-6.2-1.7-7.2c-1.6-0.5-3.2,0.1-4.6,0.8c-5.2,2.7-10.5,4.5-16.4,4.1
			c-0.2,0-0.5,0.2-0.8,0.3"/>
		<path class="st0" d="M82.1,27.7c0.2-0.7,0.8-0.9,1.3-1.3c1.9-1.7,2.1-3.4,0.5-5.5c-0.8-1.1-1.4-2.8-3.5-1.7
			c-2.4,1.3-3.6,3.2-3.2,5.5c0.2,1.1,1.2,1.9,0.9,3.2"/>
		<path class="st0" d="M58.4,52.7c-0.1,3,1.7,5,3.7,6.9c2.6,2.5,6.1,2.4,9.2,3.6c0.2,0.1,0.5,0.1,0.8,0.2"/>
		<path class="st0" d="M88.7,50.8c-1.1,2.7-2.2,5.3-3.4,8"/>
		<path class="st0" d="M86.2,48.4c-1.3-1-3-0.8-4.5-1.2c-0.9-0.2-1.7-0.6-2.6-0.9"/>
		<path class="st0" d="M90,30.4c-0.1-3-1.1-3.8-3.8-2.8c-1.4,0.5-2.8,1.1-4.4,0.3c-0.8-0.4-2-0.2-3,0c-1.7,0.4-3.1-0.1-4.5-0.9"/>
		<path class="st0" d="M73.9,27c-0.7,0.2-1.2-0.1-1.7-0.4c-2-1.1-4-1.3-6-0.3"/>
		<path class="st0" d="M81.5,17.9c-1.7-1.7-3.8-2.4-6.2-2.3"/>
		<path class="st0" d="M79.5,11.6c0.1,0.8-0.6,1.2-1.1,1.4c-1.6,0.6-2.6,2-4.1,2.8"/>
		<path class="st0" d="M46.1,105.6c0.5,1.9,0.1,3.7-0.2,5.6c-0.2,1.7-1.4,3.5-0.1,5.3"/>
		<path class="st0" d="M77.9,28.1c-0.9,1.7,0.2,3.4,0.1,5.2"/>
		<path class="st0" d="M92.9,6.9c0.1,1.4-0.9,2.5-0.9,3.8"/>
		<path class="st0" d="M60,83c-1.4,0.1-2.6,1.2-4.1,0.6"/>
		<path class="st0" d="M91.2,10.8c-0.4-0.2-0.8-0.4-1.2-0.6"/>
	</g>
</g>
</svg>
